<?xml version="1.0" encoding="utf-8"?>
<!-- Generator: Adobe Illustrator 21.0.0, SVG Export Plug-In . SVG Version: 6.00 Build 0)  -->
<svg version="1.1" xmlns="http://www.w3.org/2000/svg" xmlns:xlink="http://www.w3.org/1999/xlink" x="0px" y="0px"
	 viewBox="0 0 2700 2000" style="enable-background:new 0 0 2700 2000;" xml:space="preserve">
<style type="text/css">
	.st0{fill:#FFFFFF;}
	.st1{fill:#FBED00;}
	.st2{fill:#F5D816;}
	.st3{fill:#1F3566;}
	.st4{fill:#F4CE1F;}
	.st5{fill:#F3C721;}
	.st6{fill:#172C59;}
	.st7{fill:#E1F4FD;}
	.st8{fill:#131316;}
	.st9{fill:none;stroke:#FFFFFF;stroke-width:12.397;stroke-linecap:round;stroke-linejoin:round;stroke-miterlimit:10;}
	.st10{fill:#F1C022;}
	.st11{fill:none;stroke:#FFFFFF;stroke-width:6.4435;stroke-linecap:round;stroke-linejoin:round;stroke-miterlimit:10;}
	.st12{fill:#EEB123;}
	.st13{fill:#7FD3F4;}
	.st14{fill:#3CC5F0;}
	.st15{fill:#000028;}
	.st16{fill:#E9F7FE;}
	.st17{fill:#BC9FCB;}
	.st18{fill:#AE91BA;}
	.st19{clip-path:url(#SVGID_2_);fill:#131316;}
	.st20{clip-path:url(#SVGID_2_);fill:#FFFFFF;}
	.st21{fill:none;stroke:#FFFFFF;stroke-width:12.8276;stroke-linecap:round;stroke-linejoin:round;stroke-miterlimit:10;}
	.st22{fill:#F47E25;}
	.st23{fill:#F16925;}
	.st24{clip-path:url(#SVGID_4_);}
	.st25{fill:#231F20;}
	.st26{fill:none;stroke:#FFFFFF;stroke-width:17.572;stroke-linecap:round;stroke-linejoin:round;stroke-miterlimit:10;}
	.st27{fill:#182D5A;}
	.st28{fill:#EF5DA2;}
	.st29{fill:#EE5090;}
	.st30{fill:none;stroke:#FFFFFF;stroke-width:13.3609;stroke-linecap:round;stroke-linejoin:round;stroke-miterlimit:10;}
	.st31{fill:none;stroke:#FFFFFF;stroke-width:8.9073;stroke-linecap:round;stroke-linejoin:round;stroke-miterlimit:10;}
	.st32{fill:#E4F5FD;}
	.st33{clip-path:url(#SVGID_6_);}
	.st34{fill:#B6D433;}
	.st35{fill:#A5C12F;}
	.st36{fill:#A5C139;}
	.st37{fill:#E7F6FD;}
	.st38{fill:none;stroke:#FFFFFF;stroke-width:13.6839;stroke-linecap:round;stroke-linejoin:round;stroke-miterlimit:10;}
	.st39{fill:none;stroke:#FFFFFF;stroke-width:13.8761;stroke-linecap:round;stroke-linejoin:round;stroke-miterlimit:10;}
</style>
<g id="Layer_3">
	<rect class="st0" width="2700" height="2000"/>
</g>
<g id="Layer_2">
	<g>
		<g>
			<g>
				<path class="st1" d="M2250,640.4h-149.1c-50.7,0-91.8-41.1-91.8-91.8v-89.9c0-50.7,41.1-91.8,91.8-91.8H2250
					c50.7,0,91.8,41.1,91.8,91.8v89.9C2341.8,599.3,2300.7,640.4,2250,640.4z"/>
				<path class="st2" d="M2330.5,592.7c-15.6,28.4-45.8,47.7-80.5,47.7h-149.1c-50.7,0-91.8-41.1-91.8-91.8v-90
					c0-39.5,24.9-73.1,59.9-86.1l-0.6,95.7c-0.4,68.6,55.1,124.5,123.7,124.5H2330.5z"/>
				<rect x="2115.1" y="640.4" class="st1" width="120.8" height="15.6"/>
				<path class="st3" d="M2361.1,315.1L2361.1,315.1c-4.8,0-8.6,3.9-8.6,8.6v161.1c0,4.8,3.9,8.6,8.6,8.6l0,0c4.8,0,8.6-3.9,8.6-8.6
					V323.7C2369.7,318.9,2365.9,315.1,2361.1,315.1z"/>
				<path class="st3" d="M1995.6,315.1L1995.6,315.1c4.8,0,8.6,3.9,8.6,8.6v161.1c0,4.8-3.9,8.6-8.6,8.6l0,0c-4.8,0-8.6-3.9-8.6-8.6
					V323.7C1986.9,318.9,1990.8,315.1,1995.6,315.1z"/>
				<circle class="st3" cx="2361.1" cy="307.4" r="23.1"/>
				<circle class="st3" cx="1994.7" cy="307.4" r="23.1"/>
				<path class="st3" d="M2031.8,711.8h-78.4c-7.1,0-12.9-5.8-12.9-12.9l0,0c0-7.1,5.8-12.9,12.9-12.9h78.4
					c7.1,0,12.9,5.8,12.9,12.9l0,0C2044.7,706,2038.9,711.8,2031.8,711.8z"/>
				<path class="st3" d="M1920.9,692.4l-39.2-67.9c-3.6-6.2-1.5-14.1,4.7-17.7l0,0c6.2-3.6,14.1-1.5,17.7,4.7l39.2,67.9
					c3.6,6.2,1.5,14.1-4.7,17.7h0C1932.4,700.7,1924.5,698.6,1920.9,692.4z"/>
				<circle class="st1" cx="1942.1" cy="695" r="21.4"/>
				<path class="st1" d="M1936.7,577.9c0,23.7-19.2,42.9-42.9,42.9c-23.7,0-42.9-19.2-42.9-42.9c0-3.5,0.4-6.9,1.2-10.1h19.3
					c-1.4,3.1-2.2,6.5-2.2,10.1c0,13.5,11,24.5,24.5,24.5c13.6,0,24.5-11,24.5-24.5c0-3.6-0.8-7-2.2-10.1h19.4
					C1936.3,571.1,1936.7,574.5,1936.7,577.9z"/>
				<path class="st3" d="M2323.2,687h78.4c7.1,0,12.9,5.8,12.9,12.9l0,0c0,7.1-5.8,12.9-12.9,12.9h-78.4c-7.1,0-12.9-5.8-12.9-12.9
					l0,0C2310.3,692.8,2316.1,687,2323.2,687z"/>
				<path class="st3" d="M2434.1,706.4l39.2,67.9c3.6,6.2,1.5,14.1-4.7,17.7l0,0c-6.2,3.6-14.1,1.5-17.7-4.7l-39.2-67.9
					c-3.6-6.2-1.5-14.1,4.7-17.7v0C2422.6,698.1,2430.6,700.3,2434.1,706.4z"/>
				<circle class="st1" cx="2413" cy="703.9" r="21.4"/>
				<path class="st1" d="M2416.8,819.1c0-23.7,19.2-42.9,42.9-42.9c23.7,0,42.9,19.2,42.9,42.9c0,3.5-0.4,6.9-1.2,10.1h-19.3
					c1.4-3.1,2.2-6.5,2.2-10.1c0-13.5-11-24.5-24.5-24.5c-13.6,0-24.5,11-24.5,24.5c0,3.6,0.8,7,2.2,10.1H2418
					C2417.2,826,2416.8,822.6,2416.8,819.1z"/>
				<path class="st4" d="M2341.8,534.4L2341.8,534.4v-81.9l0,0c19.4,0,35.1,15.7,35.1,35.1v11.7
					C2376.9,518.7,2361.2,534.4,2341.8,534.4z"/>
				<path class="st5" d="M2009.1,534.4L2009.1,534.4v-81.9l0,0c-19.4,0-35.1,15.7-35.1,35.1v11.7
					C1974,518.7,1989.7,534.4,2009.1,534.4z"/>
				<path class="st1" d="M2086,730.3h-30.2c-16.7,0-30.2-13.5-30.2-30.2l0,0c0-16.7,13.5-30.2,30.2-30.2h30.2V730.3z"/>
				<path class="st2" d="M2086,705.6v24.8h-30.2c-16.7,0-30.2-13.5-30.2-30.2c0-8.3,3.4-15.9,8.8-21.3c0.2-0.2,0.5-0.5,0.7-0.7
					c1.4,15.4,14.3,27.4,30,27.4H2086z"/>
				<path class="st1" d="M2269,730.3h30.2c16.7,0,30.2-13.5,30.2-30.2l0,0c0-16.7-13.5-30.2-30.2-30.2H2269V730.3z"/>
				<path class="st2" d="M2329.4,701c-0.5,16.2-13.8,29.3-30.2,29.3H2269V670h8.4v10.2c0,16.7,13.5,30.2,30.2,30.2l0,0
					C2316.1,710.4,2323.9,706.8,2329.4,701z"/>
				<path class="st3" d="M2187.9,656H2163h-82.2c-12.7,0-22.4,11.5-20.2,24l20.7,119c2.2,12.8,13.3,22.2,26.3,22.2h55.3h24.9h55.3
					c13,0,24.1-9.3,26.3-22.2l20.7-119c2.2-12.5-7.5-24-20.2-24H2187.9z"/>
				<path class="st6" d="M2271.2,789.4l-1.7,9.5c-2.2,12.8-13.3,22.2-26.3,22.2h-135.5c-13,0-24.1-9.4-26.4-22.2l-20.7-119
					c-2.2-12.5,7.5-24,20.2-24h9.5C2097.2,702.7,2128.6,802.6,2271.2,789.4z"/>
				<path class="st1" d="M2183.1,688h-15.3h-50.3c-7.8,0-13.7,7-12.4,14.7l12.7,72.9c1.4,7.8,8.2,13.6,16.1,13.6h33.9h15.3h33.9
					c8,0,14.8-5.7,16.1-13.6l12.7-72.9c1.3-7.7-4.6-14.7-12.4-14.7H2183.1z"/>
				<path class="st2" d="M2219.2,789c-0.8,0.1-1.5,0.2-2.3,0.2h-83c-8,0-14.8-5.7-16.1-13.6l-11.4-65.7
					C2123.3,745.2,2156,781,2219.2,789z"/>
				<path class="st1" d="M2221.2,851.7h-91.5c-10,0-18-8.1-18-18v-12.6h127.5v12.6C2239.2,843.6,2231.2,851.7,2221.2,851.7z"/>
				<path class="st3" d="M2129.7,851.7l-10.7,105c-0.8,7.4,5.1,13.9,12.6,13.9l0,0c6.4,0,11.8-4.8,12.5-11.2l12.3-107.7H2129.7z"/>
				<path class="st1" d="M2167.4,992.8h-77.6v0c0-19.4,15.7-35.1,35.1-35.1h7.4C2151.7,957.7,2167.4,973.4,2167.4,992.8
					L2167.4,992.8z"/>
				<circle class="st1" cx="2137.1" cy="910.6" r="21.4"/>
				<path class="st3" d="M2228.6,851.7l10.7,105c0.8,7.4-5.1,13.9-12.6,13.9l0,0c-6.4,0-11.8-4.8-12.5-11.2l-12.3-107.7H2228.6z"/>
				<path class="st1" d="M2190.9,992.8h77.6v0c0-19.4-15.7-35.1-35.1-35.1h-7.4C2206.6,957.7,2190.9,973.4,2190.9,992.8
					L2190.9,992.8z"/>
				<circle class="st1" cx="2221.2" cy="910.6" r="21.4"/>
				<g>
					<path class="st0" d="M2116,534.4h-12c-19.1,0-34.5-15.4-34.5-34.5v-24c0-19.1,15.4-34.5,34.5-34.5h12
						c19.1,0,34.5,15.4,34.5,34.5v24C2150.5,519,2135.1,534.4,2116,534.4z"/>
					<path class="st0" d="M2234.9,534.4h12c19.1,0,34.5-15.4,34.5-34.5v-24c0-19.1-15.4-34.5-34.5-34.5h-12
						c-19.1,0-34.5,15.4-34.5,34.5v24C2200.4,519,2215.9,534.4,2234.9,534.4z"/>
					<path class="st7" d="M2147.8,513.2c-5.2,12.4-17.5,21.2-31.8,21.2h-12c-19.1,0-34.5-15.5-34.5-34.5v-24
						c0-13,7.1-24.2,17.7-30.2c-1.7,4.1-2.7,8.6-2.7,13.3v24c0,19.1,15.5,34.5,34.5,34.5h12C2137.1,517.6,2142.9,516,2147.8,513.2z"
						/>
					<path class="st7" d="M2278.7,513.2c-5.2,12.4-17.5,21.2-31.8,21.2h-12c-19.1,0-34.5-15.5-34.5-34.5v-24
						c0-13,7.1-24.2,17.7-30.2c-1.7,4.1-2.7,8.6-2.7,13.3v24c0,19.1,15.4,34.5,34.5,34.5h12C2268.1,517.6,2273.8,516,2278.7,513.2z"
						/>
				</g>
				<path class="st0" d="M2085.2,562.8h23.8v35.1h-23.8c-9.7,0-17.5-7.8-17.5-17.5c0-4.9,2-9.2,5.1-12.4
					C2075.9,564.8,2080.4,562.8,2085.2,562.8z"/>
				<rect x="2123.8" y="562.8" class="st0" width="24.6" height="35.1"/>
				<rect x="2163.2" y="562.8" class="st0" width="24.4" height="35.1"/>
				<rect x="2202.5" y="562.8" class="st0" width="24.6" height="35.1"/>
				<path class="st0" d="M2283.2,580.4c0,4.9-2,9.2-5.1,12.4c-3.2,3.2-7.6,5.1-12.4,5.1h-23.8v-35.1h23.8
					C2275.4,562.8,2283.2,570.7,2283.2,580.4z"/>
				<path class="st3" d="M2245.3,513.9h-8.8c-11.9,0-21.6-9.7-21.6-21.6v-8.8c0-11.9,9.7-21.6,21.6-21.6h8.8
					c11.9,0,21.6,9.7,21.6,21.6v8.8C2266.9,504.2,2257.2,513.9,2245.3,513.9z"/>
				<path class="st3" d="M2113.2,513.9h-8.8c-11.9,0-21.6-9.7-21.6-21.6v-8.8c0-11.9,9.7-21.6,21.6-21.6h8.8
					c11.9,0,21.6,9.7,21.6,21.6v8.8C2134.7,504.2,2125.1,513.9,2113.2,513.9z"/>
				<path class="st8" d="M2113.1,505.5h-6.4c-8.6,0-15.6-7-15.6-15.6v-6.4c0-8.6,7-15.6,15.6-15.6h6.4c8.6,0,15.6,7,15.6,15.6v6.4
					C2128.6,498.6,2121.6,505.5,2113.1,505.5z"/>
				<path class="st8" d="M2242.9,505.5h-6.4c-8.6,0-15.6-7-15.6-15.6v-6.4c0-8.6,7-15.6,15.6-15.6h6.4c8.6,0,15.6,7,15.6,15.6v6.4
					C2258.4,498.6,2251.5,505.5,2242.9,505.5z"/>
				<circle class="st0" cx="2226.3" cy="470.9" r="13.3"/>
				<circle class="st0" cx="2127.8" cy="470.9" r="13.3"/>
				<path class="st3" d="M2220.9,724.5H2130c-4.5,0-8.2-3.7-8.2-8.2l0,0c0-4.5,3.7-8.2,8.2-8.2h90.9c4.5,0,8.2,3.7,8.2,8.2l0,0
					C2229.1,720.9,2225.4,724.5,2220.9,724.5z"/>
				<circle class="st3" cx="2175.5" cy="750" r="16.8"/>
				<line class="st9" x1="2088.1" y1="383.7" x2="2243.6" y2="383.7"/>
				<path class="st9" d="M2273.6,388c0,0,26.4,7.6,34.9,24.6"/>
				<path class="st10" d="M2372.3,516.7c-6,10.6-17.4,17.7-30.5,17.7v-81.9c3.7,0,7.2,0.6,10.5,1.6
					C2344.1,491.5,2360.1,509,2372.3,516.7z"/>
				<path class="st2" d="M2433.9,708.3c-2.1,9.7-10.6,16.9-20.9,16.9c-11.8,0-21.4-9.6-21.4-21.4c0-8.7,5.2-16.2,12.6-19.5
					c-0.3,1.4-0.5,2.9-0.5,4.4c0,11.8,9.6,21.4,21.4,21.4C2428.2,710.2,2431.2,709.5,2433.9,708.3z"/>
				<path class="st2" d="M1962.9,699.7c-2.1,9.5-10.7,16.6-20.8,16.6c-11.8,0-21.4-9.6-21.4-21.3c0-8,4.4-15,11-18.7
					c-0.3,1.5-0.5,3.1-0.5,4.7c0,11.8,9.6,21.3,21.4,21.3C1956.3,702.4,1959.8,701.4,1962.9,699.7z"/>
				<path class="st2" d="M1907.1,618.7c-4.2,1.4-8.7,2.1-13.3,2.1c-23.7,0-42.9-19.2-42.9-42.9c0-3.5,0.4-6.9,1.2-10.1h19.3
					c-1.4,3.1-2.2,6.5-2.2,10.1c0,9.1,5,17,12.4,21.3C1887.9,609.7,1897.6,615.5,1907.1,618.7z"/>
				<path class="st2" d="M2502.6,820.9c-0.1,2.8-0.5,5.6-1.2,8.3h-19.3c1.4-3.1,2.2-6.5,2.2-10.1c0-0.3,0-0.5,0-0.8
					C2490.9,819.8,2497.3,820.5,2502.6,820.9z"/>
				<path class="st2" d="M2435.2,819.1c0,3.6,0.8,7,2.2,10.1H2418c-0.8-3.2-1.2-6.6-1.2-10.1c0-16,8.8-30,21.8-37.4
					c1.8,6.4,4.7,11.8,8.4,16.4C2440,802.4,2435.2,810.2,2435.2,819.1z"/>
				<path class="st2" d="M2239,836.4c-1.3,8.7-8.8,15.3-17.8,15.3h-91.5c-10,0-18-8.1-18-18v-12.6h26.1c1.3,8.7,8.8,15.3,17.8,15.3
					H2239z"/>
				<path class="st2" d="M2157.5,916.7c-2.6,8.8-10.8,15.2-20.5,15.2c-11.8,0-21.4-9.6-21.4-21.4c0-8.1,4.5-15.1,11.1-18.7
					c-0.6,1.9-0.9,4-0.9,6.1c0,11.8,9.6,21.4,21.4,21.4C2151,919.3,2154.5,918.4,2157.5,916.7z"/>
				<path class="st2" d="M2241.7,916.7c-2.6,8.8-10.8,15.2-20.5,15.2c-11.8,0-21.4-9.6-21.4-21.4c0-8.1,4.5-15.1,11.1-18.7
					c-0.6,1.9-0.9,4-0.9,6.1c0,11.8,9.6,21.4,21.4,21.4C2235.2,919.3,2238.7,918.4,2241.7,916.7z"/>
				<path class="st2" d="M2167.4,992.8h-77.6c0-9.7,3.9-18.5,10.3-24.8c1.6-1.6,3.4-3.1,5.4-4.4c11.5,23.2,40.8,24.3,61.2,21.9
					C2167.2,987.8,2167.4,990.3,2167.4,992.8z"/>
				<path class="st2" d="M2268.5,992.8h-77.6c0-8.9,3.3-17,8.8-23.2c16,20.9,50.1,17.6,67.7,14.2
					C2268.1,986.7,2268.5,989.7,2268.5,992.8z"/>
				<path class="st2" d="M2179.8,656h-64.7v-15.6h32.9C2157.7,647.5,2168.8,652.5,2179.8,656z"/>
				<path class="st6" d="M2381.1,319c-4,6.9-11.4,11.5-20,11.5c-12.8,0-23.1-10.4-23.1-23.1c0-9.9,6.2-18.3,14.9-21.6
					c-2,3.4-3.1,7.4-3.1,11.6c0,12.8,10.4,23.1,23.1,23.1C2375.8,320.5,2378.5,319.9,2381.1,319z"/>
				<path class="st6" d="M2015.5,317.5c-3.7,7.7-11.6,13-20.8,13c-12.8,0-23.1-10.4-23.1-23.1c0-8.9,5.1-16.7,12.5-20.5
					c-1.5,3.1-2.3,6.5-2.3,10.1c0,12.8,10.3,23.1,23.1,23.1C2008.7,320.1,2012.3,319.1,2015.5,317.5z"/>
				<path class="st11" d="M2354.3,461.9c0,0,16.4,5.7,16.2,26"/>
				<path class="st11" d="M2296.1,678.1c0,0,24.6,1.1,24.7,22"/>
				<circle class="st0" cx="2320.3" cy="709.5" r="3.4"/>
				<path class="st11" d="M2407.5,688.6c0,0,23.1-3.6,20,19"/>
				<path class="st11" d="M2451.2,783.6c0,0,37.6-8.1,43.9,31"/>
				<circle class="st0" cx="2496.5" cy="822.4" r="2.9"/>
				<path class="st11" d="M1929.8,573.3c0,0,3.4,29.5-23.8,38.8"/>
				<path class="st11" d="M1936.7,680c0,0,20.6-1.3,19.7,17.5"/>
				<path class="st11" d="M2039.1,682.3c0,0,3.2-5.5,14.7-6"/>
				<line class="st11" x1="2117.2" y1="697.9" x2="2198.2" y2="697.9"/>
				<line class="st11" x1="2219.5" y1="697.9" x2="2232.1" y2="697.9"/>
				<path class="st11" d="M2216.9,895.8c0,0,20.6-3.6,19.2,18.4"/>
				<path class="st11" d="M2132.3,895.8c0,0,20.6-3.6,19.2,18.4"/>
				<path class="st11" d="M2113.5,965.6c0,0,32.7-10.2,44.9,17.2"/>
				<path class="st11" d="M2213.4,965.6c0,0,32.7-10.2,44.9,17.2"/>
				<path class="st12" d="M2009.1,520.3v14.1c-19.4,0-35.1-15.7-35.1-35.1v-11.7c0-8.8,3.2-16.8,8.5-22.9
					C1976,507.7,1999.2,517.9,2009.1,520.3z"/>
				<path class="st11" d="M2005.2,460c0,0-11.6,0.6-18.2,8.1"/>
				<line class="st11" x1="2099.6" y1="665.7" x2="2243.9" y2="665.7"/>
				<path class="st11" d="M2260.9,665.7c0,0,21.5-1.1,17.2,20.2"/>
				<line class="st11" x1="2153" y1="825.5" x2="2214.3" y2="825.5"/>
				<line class="st11" x1="2224" y1="825.5" x2="2231.5" y2="825.5"/>
				<path class="st11" d="M2369.7,292.3c0,0,13.3,6,6.6,22.8"/>
				<circle class="st0" cx="2360.7" cy="290.1" r="3.3"/>
				<path class="st11" d="M2002.8,292.9c0,0,13.3,6,6.6,22.8"/>
				<circle class="st0" cx="1993.8" cy="290.8" r="3.3"/>
			</g>
			<g>
				<path class="st13" d="M1595.6,498.4h-73.5c-9.2,0-16.7-7.5-16.7-16.7v0c0-9.2,7.5-16.7,16.7-16.7h73.5c9.2,0,16.7,7.5,16.7,16.7
					v0C1612.3,490.9,1604.8,498.4,1595.6,498.4z"/>
				<path class="st14" d="M1612.3,481.7c0,4.6-1.9,8.8-4.9,11.8c-3,3-7.2,4.9-11.8,4.9h-73.5c-9.2,0-16.7-7.5-16.7-16.7
					c0-3.1,0.8-5.9,2.3-8.4c2.9,5,8.3,8.3,14.4,8.3h73.5c4.6,0,8.8-1.9,11.8-4.9c1-1,1.9-2.1,2.6-3.4
					C1611.5,475.7,1612.3,478.6,1612.3,481.7z"/>
				<circle class="st3" cx="1627.8" cy="479.1" r="39.3"/>
				<path class="st13" d="M1029.1,498.4h73.5c9.2,0,16.7-7.5,16.7-16.7v0c0-9.2-7.5-16.7-16.7-16.7h-73.5c-9.2,0-16.7,7.5-16.7,16.7
					v0C1012.4,490.9,1019.9,498.4,1029.1,498.4z"/>
				<path class="st14" d="M1119.3,481.7c0,9.2-7.5,16.7-16.7,16.7h-73.5c-4.6,0-8.8-1.9-11.8-4.9c-3-3-4.9-7.2-4.9-11.8
					c0-2.9,0.8-5.7,2.1-8.1c0.8,1.4,1.7,2.7,2.8,3.8c3,3,7.2,4.9,11.8,4.9h73.5c6.3,0,11.8-3.5,14.6-8.6
					C1118.5,476,1119.3,478.8,1119.3,481.7z"/>
				<circle class="st3" cx="996.9" cy="479.1" r="39.3"/>
				<path class="st3" d="M1505.4,524.4h-45.3v-90.6h45.3c25,0,45.3,20.3,45.3,45.3v0C1550.7,504.1,1530.4,524.4,1505.4,524.4z"/>
				<path class="st6" d="M1546.3,498.4c-2.2,4.7-5.3,9.1-9,12.7c-8.2,8.2-19.5,13.3-32,13.3h-45.3v-90.6h5v6.1
					c0,32.3,26.2,58.5,58.5,58.5H1546.3z"/>
				<path class="st3" d="M1119.3,524.4h45.3v-90.6h-45.3c-25,0-45.3,20.3-45.3,45.3v0C1074,504.1,1094.3,524.4,1119.3,524.4z"/>
				<path class="st6" d="M1164.6,494.1v30.3h-45.3c-12.5,0-23.8-5.1-32-13.3c-8.2-8.2-13.3-19.5-13.3-32c0-12,4.7-23,12.4-31.1
					c0,0.3,0,0.5,0,0.8c0,12.5,5.1,23.8,13.3,32c8.2,8.2,19.5,13.3,32,13.3H1164.6z"/>
				<path class="st13" d="M1311.6,287.5L1311.6,287.5c-95.5,0-173,77.5-173,173v167.1c0,14.8,12,26.7,26.7,26.7h292.5
					c14.8,0,26.7-12,26.7-26.7V460.5C1484.6,365,1407.1,287.5,1311.6,287.5z"/>
				<path class="st14" d="M1484.6,592.7v34.8c0,14.8-12,26.7-26.7,26.7h-292.5c-14.8,0-26.7-12-26.7-26.7v-167
					c0-54.4,25.1-102.9,64.3-134.6l0,65.4c0,111.2,90.1,201.4,201.3,201.4H1484.6z"/>
				<rect x="1249.7" y="654.3" class="st3" width="123.7" height="28.2"/>
				<path class="st13" d="M1450.6,839.6V729.6c0-16.2,13.1-29.3,29.3-29.3h0c37,0,65.1,33.1,59.2,69.6l-14.3,87.9L1450.6,839.6z"/>
				<path class="st14" d="M1530.3,824.4l-5.5,33.5l-74.2-18.3V729.6c0-12.4,7.7-23,18.6-27.3C1468.4,778.7,1505,811.1,1530.3,824.4z
					"/>
				<path class="st3" d="M1528.6,857.5c14.2,27.7,3.3,61.7-24.3,75.9l-9.7-19c17.2-8.8,24-29.9,15.1-47.2
					c-8.8-17.2-29.9-24-47.1-15.1c-17.2,8.8-24,29.9-15.1,47.1c0.4,0.7,0.8,1.4,1.2,2.1l-19,9.8c-0.4-0.7-0.8-1.4-1.2-2.1
					c-14.2-27.7-3.3-61.6,24.4-75.8C1480.5,819,1514.4,829.9,1528.6,857.5z"/>
				<path class="st3" d="M1465.3,738.9c0,16.7-13,30.5-29.5,31.5v-20.7c0-15.2-5-29.2-13.5-40.4c3.5-1.4,7.3-2.1,11.3-2.1
					C1451.1,707.3,1465.3,721.4,1465.3,738.9z"/>
				<path class="st6" d="M1460.4,755.7c-5.2,8.3-14.2,14-24.6,14.7v-20.7c0-5-0.5-9.8-1.6-14.4
					C1439.7,744.2,1447.9,752.2,1460.4,755.7z"/>
				<path class="st13" d="M1172.6,839.6V729.6c0-16.2-13.1-29.3-29.3-29.3l0,0c-37,0-65.1,33.1-59.2,69.6l14.3,87.9L1172.6,839.6z"
					/>
				<path class="st14" d="M1172.6,829.7v9.9l-74.2,18.3l-14.3-87.9c-0.5-3.3-0.8-6.6-0.8-9.8c0-15.9,6.3-30.5,16.7-41.4
					C1104.9,795.8,1150.8,821.7,1172.6,829.7z"/>
				<path class="st3" d="M1094.5,857.5c-14.2,27.7-3.3,61.7,24.3,75.9l9.7-19c-17.2-8.8-24-29.9-15.1-47.2
					c8.8-17.2,29.9-24,47.1-15.1c17.2,8.8,24,29.9,15.1,47.1c-0.4,0.7-0.8,1.4-1.2,2.1l19,9.8c0.4-0.7,0.8-1.4,1.2-2.1
					c14.2-27.7,3.3-61.6-24.4-75.8C1142.7,819,1108.8,829.9,1094.5,857.5z"/>
				<path class="st3" d="M1157.9,738.9c0,16.7,13,30.5,29.5,31.5v-20.7c0-15.2,5-29.2,13.5-40.4c-3.5-1.4-7.3-2.1-11.3-2.1
					C1172.1,707.3,1157.9,721.4,1157.9,738.9z"/>
				<path class="st3" d="M1274.7,971.6h-71.8c0,0,2.7-99.7,49.9-129.3c9.5-6,21.9,1.2,21.9,12.4V971.6z"/>
				<path class="st6" d="M1274.7,942.8v28.7h-71.8c0,0,1.4-53.7,20.8-93.9C1231.6,919.4,1257.5,936.2,1274.7,942.8z"/>
				<path class="st13" d="M1277.9,986.4h-104.7v0c0-26.2,21.2-47.4,47.4-47.4h10C1256.7,939.1,1277.9,960.3,1277.9,986.4
					L1277.9,986.4z"/>
				<path class="st14" d="M1277.9,986.4h-104.7c0-13.1,5.3-24.9,13.9-33.5c4-4,8.7-7.3,13.9-9.7c14.6,32.5,58,40.5,76.9,42.5
					C1277.9,986,1277.9,986.2,1277.9,986.4z"/>
				<path class="st3" d="M1349.9,971.6h71.8c0,0-2.7-99.7-49.9-129.3c-9.5-6-21.9,1.2-21.9,12.4V971.6z"/>
				<path class="st6" d="M1421.7,971.6h-71.8v-117c0-8.6,7.3-14.8,15-14.5c-4.3,71.4,32.7,95.4,54.1,103.2
					C1421.4,959.9,1421.7,971.6,1421.7,971.6z"/>
				<path class="st13" d="M1346.8,986.4h104.7v0c0-26.2-21.2-47.4-47.4-47.4h-10C1368,939.1,1346.8,960.3,1346.8,986.4L1346.8,986.4
					z"/>
				<path class="st14" d="M1451.5,986.1v0.3h-104.7c0-15.2,7.1-28.7,18.2-37.3C1390,976.5,1427.4,984.1,1451.5,986.1z"/>
				<path class="st13" d="M1435.8,749.8v42.6c0,37.2-30.1,67.3-67.3,67.3h-113.9c-37.2,0-67.3-30.1-67.3-67.3v-42.6
					c0-37.2,30.1-67.3,67.3-67.3h113.9c22,0,41.5,10.5,53.8,26.8C1430.8,720.6,1435.8,734.6,1435.8,749.8z"/>
				<path class="st14" d="M1427.7,824.4c-11.4,21-33.6,35.2-59.2,35.2h-113.9c-37.2,0-67.3-30.1-67.3-67.3v-42.6
					c0-26.2,15-48.9,36.8-60l0.2,24.1c0.6,61.3,50.4,110.6,111.7,110.6H1427.7z"/>
				<g>
					<g>
						<path class="st0" d="M1239.9,516.1h-14.5c-23,0-41.6-18.6-41.6-41.6v-29c0-23,18.6-41.6,41.6-41.6h14.5
							c23,0,41.6,18.6,41.6,41.6v29C1281.5,497.5,1262.9,516.1,1239.9,516.1z"/>
						<path class="st0" d="M1383.2,516.1h14.5c23,0,41.6-18.6,41.6-41.6v-29c0-23-18.6-41.6-41.6-41.6h-14.5
							c-23,0-41.6,18.6-41.6,41.6v29C1341.7,497.5,1360.3,516.1,1383.2,516.1z"/>
					</g>
					<path class="st0" d="M1202.8,550.4h28.7v42.3h-28.7c-11.7,0-21.1-9.5-21.1-21.1c0-5.9,2.4-11.1,6.2-15
						C1191.7,552.8,1197,550.4,1202.8,550.4z"/>
					<rect x="1249.3" y="550.4" class="st0" width="29.7" height="42.3"/>
					<rect x="1296.9" y="550.4" class="st0" width="29.5" height="42.3"/>
					<rect x="1344.1" y="550.4" class="st0" width="29.7" height="42.3"/>
					<path class="st0" d="M1441.5,571.6c0,5.9-2.4,11.1-6.2,15c-3.8,3.8-9.1,6.2-15,6.2h-28.7v-42.3h28.7
						C1432,550.4,1441.5,559.9,1441.5,571.6z"/>
					<path class="st3" d="M1394.8,492.8h-11.6c-15.6,0-28.2-12.6-28.2-28.2V453c0-15.6,12.6-28.2,28.2-28.2h11.6
						c15.6,0,28.2,12.6,28.2,28.2v11.6C1423,480.1,1410.4,492.8,1394.8,492.8z"/>
					<path class="st3" d="M1238.3,492.8h-11.6c-15.6,0-28.2-12.6-28.2-28.2V453c0-15.6,12.6-28.2,28.2-28.2h11.6
						c15.6,0,28.2,12.6,28.2,28.2v11.6C1266.5,480.1,1253.9,492.8,1238.3,492.8z"/>
					<path class="st15" d="M1236.4,481.3h-7.7c-10.4,0-18.7-8.4-18.7-18.7v-7.7c0-10.4,8.4-18.7,18.7-18.7h7.7
						c10.4,0,18.7,8.4,18.7,18.7v7.7C1255.1,473,1246.7,481.3,1236.4,481.3z"/>
					<path class="st15" d="M1392.9,481.3h-7.7c-10.4,0-18.7-8.4-18.7-18.7v-7.7c0-10.4,8.4-18.7,18.7-18.7h7.7
						c10.4,0,18.7,8.4,18.7,18.7v7.7C1411.6,473,1403.2,481.3,1392.9,481.3z"/>
					<circle class="st0" cx="1372.9" cy="439.6" r="16"/>
					<circle class="st0" cx="1254.1" cy="439.6" r="16"/>
					<path class="st16" d="M1231.5,574.9v17.8h-28.7c-11.7,0-21.1-9.5-21.1-21.1c0-5.9,2.4-11.1,6.2-15c2.2-2.2,5-4,8-5v1.7
						c0,11.9,9.6,21.5,21.4,21.6L1231.5,574.9z"/>
					<polygon class="st16" points="1279,574.9 1279,592.7 1249.3,592.7 1249.3,574.9 					"/>
					<polygon class="st16" points="1326.3,574.8 1326.3,592.7 1296.9,592.7 1296.9,574.9 					"/>
					<polygon class="st16" points="1373.8,574.8 1373.8,592.7 1344.1,592.7 1344.1,574.8 					"/>
					<path class="st16" d="M1441.2,574.8c-0.7,4.6-2.8,8.6-5.9,11.8c-3.8,3.8-9.1,6.2-15,6.2h-28.7v-17.9L1441.2,574.8z"/>
				</g>
				<path class="st3" d="M1224,689.9l20.7,55.6c3,8.1,10.8,13.5,19.4,13.5h95c8.6,0,16.4-5.4,19.4-13.5l20.8-55.6
					c0,0-8.7-5.4-25.8-7.4l-13.7,39.6c-2.9,8.3-10.7,13.9-19.5,13.9l-58.8,0.1c-9.1,0-17.2-5.9-19.8-14.7l-11.9-38.9
					C1249.7,682.5,1228.9,685.5,1224,689.9z"/>
				<g>
					<path class="st3" d="M1392.6,808.5h-162.1c-7.5,0-13.6-6.1-13.6-13.6l0,0c0-7.5,6.1-13.6,13.6-13.6h162.1
						c7.5,0,13.6,6.1,13.6,13.6l0,0C1406.2,802.4,1400.1,808.5,1392.6,808.5z"/>
					<g>
						<circle class="st6" cx="1262.2" cy="824.4" r="8.5"/>
						<circle class="st6" cx="1295.4" cy="824.4" r="8.5"/>
						<circle class="st3" cx="1328" cy="824.4" r="8.5"/>
						<circle class="st3" cx="1361" cy="824.4" r="8.5"/>
					</g>
				</g>
				<path class="st9" d="M1183.9,374c0,0,70.3-108,198.9-51.6"/>
				<path class="st9" d="M1405.9,337.6c0,0,24.5,15.6,37.4,43.3"/>
				<path class="st6" d="M1036,482.1c-1.6,20.3-18.5,36.2-39.2,36.2c-21.7,0-39.3-17.6-39.3-39.3c0-11.3,4.8-21.5,12.5-28.7
					c-0.1,1-0.1,2-0.1,3c0,21.7,17.6,39.3,39.3,39.3C1019.6,492.7,1029,488.7,1036,482.1z"/>
				<path class="st6" d="M1665.7,489.5c-4.6,16.7-19.8,28.9-37.9,28.9c-21.7,0-39.3-17.6-39.3-39.3c0-13.2,6.5-24.8,16.4-32
					c-0.9,3.3-1.4,6.8-1.4,10.4c0,21.7,17.6,39.3,39.3,39.3C1651.4,496.8,1659.2,494.1,1665.7,489.5z"/>
				<path class="st6" d="M1200.9,887.3c-0.5,7.4-2.5,14.8-6.1,21.8c-0.4,0.7-0.7,1.4-1.1,2.1l-19-9.8c0.4-0.7,0.8-1.4,1.2-2.1
					c2.2-4.3,3.5-8.9,3.8-13.5C1188.6,887.3,1196.1,887.4,1200.9,887.3z"/>
				<path class="st6" d="M1128.6,914.5l-9.7,19c-27.7-14.2-38.6-48.2-24.3-75.9c3.4-6.6,7.9-12.2,13.1-16.7
					c4.4,6.1,9.1,11.5,14,16.1c-3.2,2.8-6,6.3-8.1,10.4C1104.6,884.5,1111.4,905.6,1128.6,914.5z"/>
				<path class="st6" d="M1523,918c-4.9,6.3-11.1,11.6-18.7,15.5l-9.8-19c3.2-1.7,6.1-3.7,8.5-6.1
					C1509.9,912.1,1516.7,915.3,1523,918z"/>
				<path class="st6" d="M1447.4,899.3c0.4,0.7,0.8,1.4,1.2,2.1l-19,9.8c-0.4-0.7-0.8-1.4-1.2-2.1c-11.7-22.7-6.4-49.6,11.2-66.4
					c3.1,7.1,6.8,13.6,11,19.6C1442.7,872.6,1441.1,887,1447.4,899.3z"/>
				<path class="st6" d="M1278.1,808.5h-47.5c-7.5,0-13.6-6.1-13.6-13.6c0-3.8,1.5-7.2,4-9.6c2.5-2.5,5.9-4,9.6-4h17
					C1256,792.1,1266.3,801.3,1278.1,808.5z"/>
				<path class="st6" d="M1373.5,671.8v10.7h-123.7v-28.2h18.6c4.2,10.3,14.3,17.5,26.1,17.5H1373.5z"/>
			</g>
			<g>
				<path class="st3" d="M1947.5,1382.7h21.7v-88.3h-21.7c-14.4,0-26,11.6-26,26v36.3C1921.5,1371,1933.1,1382.7,1947.5,1382.7z"/>
				<path class="st17" d="M2386,1363.1L2386,1363.1c-5.7,0-10.3-4.6-10.3-10.3V1176c0-5.7,4.6-10.3,10.3-10.3h0
					c5.7,0,10.3,4.6,10.3,10.3v176.8C2396.3,1358.5,2391.7,1363.1,2386,1363.1z"/>
				<path class="st17" d="M1929.6,1363.1L1929.6,1363.1c5.7,0,10.3-4.6,10.3-10.3V1176c0-5.7-4.6-10.3-10.3-10.3l0,0
					c-5.7,0-10.3,4.6-10.3,10.3v176.8C1919.3,1358.5,1923.9,1363.1,1929.6,1363.1z"/>
				<circle class="st3" cx="2386" cy="1163.5" r="23"/>
				<circle class="st3" cx="1929.6" cy="1163.5" r="23"/>
				<path class="st3" d="M2370.3,1382.7h-21.7v-88.3h21.7c14.4,0,26,11.6,26,26v36.3C2396.3,1371,2384.6,1382.7,2370.3,1382.7z"/>
				<path class="st6" d="M2394,1367.2c-4,9.1-13.2,15.4-23.8,15.4h-21.7v-88.3h4.1C2358,1349.3,2380.7,1363.6,2394,1367.2z"/>
				<path class="st3" d="M1945.3,1382.7h21.7v-88.3h-21.7c-14.4,0-26,11.6-26,26v36.3C1919.3,1371,1931,1382.7,1945.3,1382.7z"/>
				<path class="st6" d="M1967,1373.8v8.9h-21.7c-14.4,0-26-11.6-26-26v-36.3c0-8.3,3.9-15.7,9.9-20.4
					C1924.9,1351.8,1947.3,1368.7,1967,1373.8z"/>
				<path class="st17" d="M2297.1,1430.9h-275.5c-38.6,0-69.9-31.3-69.9-69.9v-52c0-38.6,31.3-69.9,69.9-69.9h275.5
					c38.6,0,69.9,31.3,69.9,69.9v52C2367,1399.6,2335.7,1430.9,2297.1,1430.9z"/>
				<path class="st18" d="M2359.1,1393.4c-11.7,22.3-35.1,37.5-62,37.5h-275.5c-38.6,0-69.9-31.3-69.9-69.9v-52
					c0-35.7,26.8-65.2,61.4-69.4v35.5c0,44.8,24.9,83.7,61.6,103.8c-2.1,0.8-4,2-5.6,3.6c-2.8,2.8-4.5,6.6-4.5,10.9
					c0,8.5,6.9,15.4,15.4,15.4h20.9v-19.4c4.3,1.1,8.6,2,13,2.7v16.7h21.7v-15.4h13v15.4h21.5v-15.4h13v15.4h21.7v-15.4h13v15.4h21
					c4.2,0,8.2-1.7,10.9-4.5c2.8-2.8,4.5-6.6,4.5-10.9H2359.1z"/>
				<rect x="2110.1" y="1430.9" class="st3" width="100.8" height="24.9"/>
				<path class="st6" d="M2120.9,1685.2v28.6h-51.5c-0.6-48.1,8.1-75,15.9-89.4C2090.5,1657.5,2106.4,1675.5,2120.9,1685.2z"/>
				<path class="st3" d="M2120.9,1609.4v75.8c-14.6-9.7-30.4-27.8-35.6-60.8c6.2-11.4,11.8-15,11.8-15H2120.9z"/>
				<path class="st17" d="M2126.4,1715.7h-85.1l0,0c0-21.3,17.2-38.5,38.5-38.5h8.1C2109.1,1677.2,2126.4,1694.5,2126.4,1715.7
					L2126.4,1715.7z"/>
				<circle class="st17" cx="2107.5" cy="1605.1" r="24"/>
				<path class="st18" d="M2128.3,1617c-4.1,7.2-11.9,12-20.8,12c-13.2,0-24-10.7-24-24c0-9.8,5.8-18.2,14.2-21.9
					c-2,3.5-3.2,7.6-3.2,11.9c0,13.2,10.7,24,24,24C2122,1619.1,2125.3,1618.4,2128.3,1617z"/>
				<path class="st3" d="M2199.7,1713.9v-104.4h23.8c0,0,28.7,18.2,27.6,104.4H2199.7z"/>
				<path class="st6" d="M2251.2,1713.9h-51.5v-104.4h3.1c2.7,52.4,29.6,73.5,48,81.8C2251.1,1698.2,2251.3,1705.7,2251.2,1713.9z"
					/>
				<path class="st17" d="M2194.3,1715.7h85.1l0,0c0-21.3-17.2-38.5-38.5-38.5h-8.1C2211.5,1677.2,2194.3,1694.5,2194.3,1715.7
					L2194.3,1715.7z"/>
				<circle class="st17" cx="2213.1" cy="1605.1" r="24"/>
				<path class="st18" d="M2233.9,1617c-4.1,7.2-11.9,12-20.8,12c-13.2,0-24-10.7-24-24c0-9.8,5.8-18.1,14.2-21.9
					c-2,3.5-3.2,7.6-3.2,11.9c0,13.2,10.7,24,24,24C2227.6,1619.1,2230.9,1618.4,2233.9,1617z"/>
				<path class="st3" d="M2205.9,1609.4h-93.2c-34.3,0-62.1-27.8-62.1-62.1V1470c0-11.6,9.4-21,21-21h175.6c11.6,0,21,9.4,21,21
					v77.3C2268.1,1581.6,2240.3,1609.4,2205.9,1609.4z"/>
				<path class="st3" d="M2344.1,1499.1h-60.5c-5.8,0-10.6-4.7-10.6-10.6l0,0c0-5.8,4.7-10.6,10.6-10.6h60.5
					c5.8,0,10.6,4.7,10.6,10.6l0,0C2354.7,1494.3,2350,1499.1,2344.1,1499.1z"/>
				<path class="st17" d="M2290.6,1485.8c0,12.7-9.9,23.2-22.5,23.9V1470c0-2.9-0.6-5.6-1.6-8.1h0.2
					C2279.8,1461.9,2290.6,1472.6,2290.6,1485.8z"/>
				<path class="st6" d="M2367.4,1564.6c-1.5,0.8-3.2,1.3-5,1.3c-5.8,0-10.6-4.7-10.6-10.6v-59c0-5.8,4.7-10.6,10.6-10.6
					c1.8,0,3.5,0.5,5,1.3c-3.3,1.8-5.6,5.3-5.6,9.3v59C2361.9,1559.3,2364.1,1562.8,2367.4,1564.6z"/>
				<path class="st3" d="M2373,1496.4v59c0,4-2.2,7.5-5.5,9.3c-3.3-1.8-5.6-5.3-5.6-9.3v-59c0-4,2.2-7.5,5.6-9.3
					c0.9,0.5,1.7,1.1,2.4,1.8C2371.8,1490.8,2373,1493.4,2373,1496.4z"/>
				<circle class="st17" cx="2362.4" cy="1488.5" r="20.5"/>
				<path class="st17" d="M2392.4,1568.6c15.6,16.6,14.7,42.6-1.9,58.2l-10.6-11.4c10.3-9.7,10.8-25.8,1.1-36.2
					c-9.7-10.3-25.8-10.8-36.1-1.2c-10.3,9.7-10.8,25.8-1.2,36.1c0.4,0.4,0.9,0.9,1.3,1.2l-11.4,10.7c-0.4-0.4-0.8-0.8-1.2-1.3
					c-15.5-16.6-14.7-42.6,1.9-58.1C2350.9,1551.2,2376.9,1552,2392.4,1568.6z"/>
				<path class="st3" d="M1974.4,1499.1h60.5c5.8,0,10.6-4.7,10.6-10.6l0,0c0-5.8-4.7-10.6-10.6-10.6h-60.5
					c-5.8,0-10.6,4.7-10.6,10.6l0,0C1963.8,1494.3,1968.6,1499.1,1974.4,1499.1z"/>
				<path class="st17" d="M2028,1485.8c0,12.7,9.9,23.2,22.5,23.9V1470c0-2.9,0.6-5.6,1.6-8.1h-0.2
					C2038.7,1461.9,2028,1472.6,2028,1485.8z"/>
				<path class="st6" d="M1961.2,1564.6c-1.5,0.8-3.2,1.3-5,1.3c-5.8,0-10.6-4.7-10.6-10.6v-59c0-2.9,1.2-5.6,3.1-7.5
					c1.9-1.9,4.6-3.1,7.5-3.1c1.8,0,3.5,0.5,5,1.3c-0.9,0.5-1.7,1.1-2.4,1.8c-1.9,1.9-3.1,4.6-3.1,7.5v59
					C1955.6,1559.3,1957.9,1562.8,1961.2,1564.6z"/>
				<path class="st3" d="M1966.7,1496.4v59c0,4-2.2,7.5-5.5,9.3c-3.3-1.8-5.5-5.3-5.5-9.3v-59c0-2.9,1.2-5.6,3.1-7.5
					c0.7-0.7,1.5-1.3,2.4-1.8C1964.5,1488.9,1966.7,1492.4,1966.7,1496.4z"/>
				<circle class="st17" cx="1956.1" cy="1488.5" r="20.5"/>
				<path class="st17" d="M1926.1,1568.6c-15.6,16.6-14.7,42.6,1.9,58.2l10.6-11.4c-10.3-9.7-10.8-25.8-1.1-36.2
					c9.7-10.3,25.8-10.8,36.1-1.2s10.8,25.8,1.2,36.1c-0.4,0.4-0.9,0.9-1.3,1.2l11.4,10.7c0.4-0.4,0.8-0.8,1.2-1.3
					c15.5-16.6,14.7-42.6-1.9-58.1S1941.6,1552,1926.1,1568.6z"/>
				<path class="st3" d="M2321.3,1325.1c0,8.5-3.4,16.2-9,21.8c-5.6,5.6-13.3,9-21.8,9h-258.1c-17,0-30.7-13.8-30.7-30.8
					c0-8.5,3.5-16.2,9-21.7c5.5-5.6,13.3-9,21.7-9h258.1C2307.6,1294.4,2321.3,1308.2,2321.3,1325.1z"/>
				<path class="st6" d="M2317.7,1339.6c-1.4,2.7-3.2,5.1-5.4,7.3c-5.6,5.6-13.3,9-21.8,9h-258.1c-17,0-30.7-13.8-30.7-30.8
					c0-8.5,3.5-16.2,9-21.7c5.6-5.6,13.3-9,21.7-9h24.5c5.3,25.8,28.1,45.2,55.5,45.2H2317.7z"/>
				<path class="st0" d="M2285.5,1339.6h-248c-8,0-14.5-6.5-14.5-14.5l0,0c0-8,6.5-14.5,14.5-14.5h248c8,0,14.5,6.5,14.5,14.5l0,0
					C2300,1333.1,2293.5,1339.6,2285.5,1339.6z"/>
				<g>
					<path class="st7" d="M2100.9,1389.4v19.4h-20.9c-8.5,0-15.4-6.9-15.4-15.4c0-4.3,1.7-8.1,4.5-10.9c1.5-1.5,3.4-2.8,5.6-3.6
						C2082.8,1383.4,2091.6,1387,2100.9,1389.4z"/>
					<path class="st0" d="M2100.9,1378v11.5c-9.3-2.4-18.1-6-26.3-10.5c1.7-0.6,3.5-1,5.4-1H2100.9z"/>
					<path class="st7" d="M2135.6,1393.4v15.4h-21.7v-16.7c5.7,0.8,11.5,1.3,17.4,1.3H2135.6z"/>
					<path class="st0" d="M2135.6,1378v15.4h-4.3c-5.9,0-11.7-0.4-17.4-1.3V1378H2135.6z"/>
					<rect x="2148.6" y="1393.4" class="st7" width="21.5" height="15.4"/>
					<rect x="2148.6" y="1378" class="st0" width="21.5" height="15.4"/>
					<rect x="2183.1" y="1393.4" class="st7" width="21.7" height="15.4"/>
					<rect x="2183.1" y="1378" class="st0" width="21.7" height="15.4"/>
					<path class="st7" d="M2254.1,1393.4c0,4.3-1.7,8.1-4.5,10.9c-2.8,2.8-6.7,4.5-10.9,4.5h-21v-15.4H2254.1z"/>
					<path class="st0" d="M2254.1,1393.4h-36.4V1378h21C2247.3,1378,2254.1,1384.9,2254.1,1393.4z"/>
				</g>
				<g>
					<defs>
						<path id="SVGID_1_" d="M2285.5,1339.6h-248c-8,0-14.5-6.5-14.5-14.5l0,0c0-8,6.5-14.5,14.5-14.5h248c8,0,14.5,6.5,14.5,14.5
							l0,0C2300,1333.1,2293.5,1339.6,2285.5,1339.6z"/>
					</defs>
					<clipPath id="SVGID_2_">
						<use xlink:href="#SVGID_1_"  style="overflow:visible;"/>
					</clipPath>
					<circle class="st19" cx="2072.1" cy="1327.1" r="28.8"/>
					<circle class="st20" cx="2087.2" cy="1308.7" r="18.4"/>
					<circle class="st19" cx="2251.3" cy="1327.1" r="28.8"/>
					<circle class="st20" cx="2236.2" cy="1308.7" r="18.4"/>
				</g>
				<line class="st9" x1="2023" y1="1255.8" x2="2266.4" y2="1255.8"/>
				<path class="st9" d="M2291.3,1255.8c0,0,42.4-2.7,52.4,29.5"/>
				<circle class="st17" cx="2159.3" cy="1523.3" r="39.7"/>
				<circle class="st3" cx="2159.3" cy="1523.3" r="26.9"/>
				<path class="st17" d="M2237.4,1502.1h-8.9c-2.7,0-4.8-2.2-4.8-4.8v-8.9c0-2.7,2.2-4.8,4.8-4.8h8.9c2.7,0,4.8,2.2,4.8,4.8v8.9
					C2242.2,1499.9,2240.1,1502.1,2237.4,1502.1z"/>
				<path class="st17" d="M2237.4,1532.7h-8.9c-2.7,0-4.8-2.2-4.8-4.8v-8.9c0-2.7,2.2-4.8,4.8-4.8h8.9c2.7,0,4.8,2.2,4.8,4.8v8.9
					C2242.2,1530.6,2240.1,1532.7,2237.4,1532.7z"/>
				<path class="st17" d="M2237.4,1563h-8.9c-2.7,0-4.8-2.2-4.8-4.8v-8.9c0-2.7,2.2-4.8,4.8-4.8h8.9c2.7,0,4.8,2.2,4.8,4.8v8.9
					C2242.2,1560.9,2240.1,1563,2237.4,1563z"/>
				<line class="st21" x1="2231.5" y1="1461.9" x2="2245.1" y2="1461.9"/>
				<path class="st6" d="M2406.8,1173.3c-3.7,7.8-11.6,13.2-20.9,13.2c-12.7,0-23-10.3-23-23c0-9.1,5.3-17,13-20.8
					c-1.4,3-2.2,6.3-2.2,9.8c0,12.7,10.3,23,23,23C2400.4,1175.6,2403.8,1174.7,2406.8,1173.3z"/>
				<path class="st6" d="M1951.7,1170.1c-2.8,9.5-11.6,16.4-22.1,16.4c-12.7,0-23-10.3-23-23c0-7.5,3.6-14.2,9.2-18.4
					c-0.6,2.1-1,4.3-1,6.6c0,12.7,10.3,23,23,23C1943,1174.7,1947.8,1173,1951.7,1170.1z"/>
				<path class="st11" d="M2388.8,1146.3c0,0,18.7,5.4,12.5,24.2"/>
				<circle class="st0" cx="2379.8" cy="1146.6" r="3.2"/>
				<path class="st11" d="M1934.8,1146.3c0,0,18.7,5.4,12.5,24.2"/>
				<circle class="st0" cx="1925.8" cy="1146.6" r="3.2"/>
				<path class="st18" d="M2381.2,1496.7c-3.2,7.2-10.4,12.3-18.8,12.3c-11.3,0-20.5-9.2-20.5-20.5c0-7.9,4.4-14.7,11-18.1
					c-1.1,2.5-1.7,5.3-1.7,8.2c0,11.3,9.2,20.5,20.5,20.5C2375.1,1499,2378.4,1498.2,2381.2,1496.7z"/>
				<path class="st11" d="M2363.4,1473c0,0,18.1,2,13.8,21"/>
				<circle class="st0" cx="2356.2" cy="1474" r="3.3"/>
				<path class="st18" d="M2287.6,1497.3c-3.8,7-11.1,11.9-19.6,12.4V1477C2272.3,1489.5,2281.4,1495,2287.6,1497.3z"/>
				<path class="st11" d="M2273.1,1468c0,0,16.6,4.9,11.6,24.7"/>
				<path class="st18" d="M2399.1,1615.3c-2.1,4.2-5,8-8.6,11.4l-10.6-11.4c1.1-1.1,2.1-2.2,3-3.4
					C2389,1613.7,2394.6,1614.7,2399.1,1615.3z"/>
				<path class="st18" d="M2345,1615.4l-11.4,10.7c-0.4-0.4-0.8-0.8-1.2-1.3c-15.4-16.4-14.7-42.1,1.5-57.7
					c1.8,5.9,4.2,11.1,7.1,15.6c-6.3,9.6-5.4,22.6,2.8,31.4C2344.2,1614.6,2344.6,1615,2345,1615.4z"/>
				<path class="st11" d="M2363.1,1561.1c0,0,44.6,3.6,32.3,50.8"/>
				<path class="st11" d="M2338.2,1568.7c0,0,4.8-5,14.1-7.1"/>
				<path class="st11" d="M1956,1561.7c0,0,44.6,3.6,32.3,50.8"/>
				<path class="st11" d="M1931.1,1569.3c0,0,4.8-5,14.1-7.1"/>
				<path class="st6" d="M2262,1574c-10,21-31.4,35.4-56.1,35.4h-93.2c-34.3,0-62.1-27.8-62.1-62.1V1470c0-11.6,9.4-21,21-21h14.3
					v50.9c0,40.9,33.2,74.1,74.1,74.1H2262z"/>
				<path class="st18" d="M2195.2,1540.4c-6.4,13.3-20.1,22.6-35.8,22.6c-22,0-39.7-17.8-39.7-39.7c0-16.1,9.5-29.9,23.2-36.2
					c-2.5,5.2-3.9,11-3.9,17.2c0,0.5,0,1,0,1.4c-4.1,4.7-6.5,10.8-6.5,17.5c0,14.9,12,26.9,26.9,26.9c6.5,0,12.5-2.3,17.2-6.2
					c0.7,0,1.4,0.1,2.1,0.1C2184.5,1544,2190.1,1542.8,2195.2,1540.4z"/>
				<path class="st6" d="M2176.5,1544c-4.6,3.9-10.6,6.2-17.2,6.2c-14.9,0-26.9-12-26.9-26.9c0-6.7,2.4-12.8,6.5-17.5
					C2139.7,1526.3,2156,1542.9,2176.5,1544z"/>
				<path class="st18" d="M2050.5,1496.7v13c-12.6-0.7-22.5-11.1-22.5-23.9c0-8,3.9-15,9.9-19.4
					C2033.8,1485.5,2042.6,1493.4,2050.5,1496.7z"/>
				<path class="st18" d="M1975.8,1494.1c-2.4,8.6-10.3,14.8-19.7,14.8c-11.3,0-20.5-9.2-20.5-20.5c0-7.2,3.7-13.6,9.4-17.2
					c-0.5,1.8-0.8,3.7-0.8,5.7c0,11.3,9.2,20.5,20.5,20.5C1968.8,1497.4,1972.6,1496.2,1975.8,1494.1z"/>
				<path class="st18" d="M1994.8,1610.7c-1.8,5.1-4.7,9.9-8.6,14.1c-0.4,0.4-0.8,0.8-1.2,1.3l-11.4-10.7c0.4-0.4,0.8-0.8,1.3-1.2
					c1.1-1.2,2-2.4,2.9-3.7C1983.9,1610.9,1989.8,1610.9,1994.8,1610.7z"/>
				<path class="st18" d="M1938.6,1615.4l-10.6,11.4c-15.5-14.5-17.2-38.1-4.8-54.7c1,7.9,3.9,14.2,7.9,19.3
					C1929.3,1599.8,1931.8,1609,1938.6,1615.4z"/>
				<path class="st11" d="M1955.7,1472.3c0,0,16.4,0,15.8,20.3"/>
				<circle class="st0" cx="1948.4" cy="1474.6" r="3.3"/>
				<path class="st11" d="M2039.2,1470.6c0,0,3.3-3.7,8.2-3.6"/>
				<path class="st11" d="M2168.5,1489.7c0,0,33.6,11.3,22.3,46.8"/>
				<path class="st11" d="M2143.7,1491.2c0,0,5.6-3.4,13.6-3.1"/>
				<path class="st18" d="M2126.4,1715.7h-85.1c0-10.6,4.3-20.2,11.3-27.2c1.8-1.8,3.7-3.3,5.7-4.7c17.2,27.4,52.5,26.4,67.4,24.6
					C2126.1,1710.8,2126.4,1713.2,2126.4,1715.7z"/>
				<path class="st18" d="M2279.3,1715.7h-85.1c0-12,5.5-22.6,14-29.7c19.8,28.1,60.1,23.5,70.2,21.8
					C2279.1,1710.4,2279.3,1713,2279.3,1715.7z"/>
				<line class="st21" x1="2077.6" y1="1461.9" x2="2208.2" y2="1461.9"/>
				<path class="st11" d="M2231.4,1682.5c0,0,32.5-4.3,39.7,23.1"/>
				<circle class="st0" cx="2219.1" cy="1687.4" r="4.4"/>
				<path class="st11" d="M2079.8,1684c0,0,32.5-4.3,39.7,23.1"/>
				<circle class="st0" cx="2068.7" cy="1687.1" r="4.4"/>
				<path class="st11" d="M2234.5,1637.4c0,0,7.9,16,7.9,33.8"/>
				<circle class="st0" cx="2230.3" cy="1629.8" r="3.2"/>
				<line class="st11" x1="2115.7" y1="1678.7" x2="2115.7" y2="1641.9"/>
				<circle class="st0" cx="2114.9" cy="1633.6" r="3.3"/>
			</g>
			<g>
				<path class="st22" d="M368.5,825.9v-76.5c0-11.3-9.1-20.4-20.4-20.4h0c-25.7,0-45.3,23-41.2,48.4l10,61.2L368.5,825.9z"/>
				<path class="st23" d="M368.5,818.2v7.7l-51.6,12.7l-10-61.2c-0.4-2.3-0.5-4.6-0.5-6.8c0-10.8,4.2-20.9,11.2-28.4
					C313.6,789.2,351.4,810.8,368.5,818.2z"/>
				<path class="st22" d="M578.9,686.5H438.1c-39.5,0-71.5-32-71.5-71.5V401.7c0-39.5,32-71.5,71.5-71.5h140.8
					c39.5,0,71.5,32,71.5,71.5V615C650.4,654.5,618.4,686.5,578.9,686.5z"/>
				<path class="st23" d="M648.4,631.6c-7.5,31.5-35.8,54.9-69.5,54.9H438.1c-39.5,0-71.5-32-71.5-71.5V401.7
					c0-30.5,19.1-56.6,46.1-66.8v104.3c0,106.3,86.2,192.5,192.5,192.5H648.4z"/>
				<rect x="445.1" y="686.5" class="st3" width="126.9" height="19.9"/>
				<circle class="st3" cx="364.7" cy="740.6" r="28.8"/>
				<path class="st6" d="M393.2,744.7c-2,14-14,24.7-28.5,24.7c-15.9,0-28.8-12.9-28.8-28.8c0-8.2,3.5-15.7,9-20.9
					c-0.2,1.3-0.3,2.7-0.3,4.1c0,15.9,12.9,28.8,28.8,28.8C381,752.6,388,749.6,393.2,744.7z"/>
				<path class="st3" d="M385.7,874.3c-0.3,0.5-0.5,1-0.8,1.5l-13.2-6.8c0.3-0.5,0.6-1,0.8-1.5c4.7-9,3.1-19.6-3.1-26.9
					c-2-2.4-4.5-4.4-7.4-5.9c-11.9-6.2-26.7-1.4-32.8,10.5c-0.7,1.3-1.2,2.6-1.6,3.9c-3.5,11.1,1.4,23.4,12.1,28.9l-6.8,13.2
					c-19.3-9.9-26.9-33.5-16.9-52.8c0.5-0.9,1-1.8,1.6-2.7c10.6-17.2,32.9-23.6,51.2-14.2c1.6,0.8,3.1,1.7,4.6,2.8
					C389.1,835.4,394.7,856.7,385.7,874.3z"/>
				<path class="st22" d="M647.8,825.9v-76.5c0-11.3,9.1-20.4,20.4-20.4h0c25.7,0,45.3,23,41.2,48.4l-10,61.2L647.8,825.9z"/>
				<path class="st23" d="M701.4,826l-2.1,12.7l-51.6-12.7v-76.5c0-4.5,1.4-8.6,3.9-12C654.4,791.8,684.3,816.3,701.4,826z"/>
				<circle class="st3" cx="651.6" cy="740.6" r="28.8"/>
				<path class="st6" d="M680.3,743.3c-1.4,14.6-13.7,26.1-28.7,26.1c-15.9,0-28.8-12.9-28.8-28.8c0-6,1.8-11.6,5-16.2
					c-0.1,0.9-0.1,1.8-0.1,2.7c0,15.9,12.9,28.8,28.8,28.8C666.4,756,675.1,751,680.3,743.3z"/>
				<path class="st3" d="M630.6,874.3c0.3,0.5,0.5,1,0.8,1.5l13.2-6.8c-0.3-0.5-0.6-1-0.8-1.5c-4.7-9-3.1-19.6,3.1-26.9
					c2-2.4,4.5-4.4,7.4-5.9c11.9-6.2,26.7-1.4,32.8,10.5c0.7,1.3,1.2,2.6,1.6,3.9c3.5,11.1-1.4,23.4-12.1,28.9l6.8,13.2
					c19.3-9.9,26.9-33.5,16.9-52.8c-0.5-0.9-1-1.8-1.6-2.7c-10.6-17.2-32.9-23.6-51.2-14.2c-1.6,0.8-3.1,1.7-4.6,2.8
					C627.2,835.4,621.6,856.7,630.6,874.3z"/>
				<path class="st22" d="M399.8,706.4h217.3c18.4,0,33.2,14.9,33.2,33.2v0c0,54.9-44.5,99.3-99.3,99.3H466
					c-54.9,0-99.3-44.5-99.3-99.3v0C366.6,721.2,381.5,706.4,399.8,706.4z"/>
				<path class="st23" d="M622.6,808.4c-0.5,0.5-0.9,0.9-1.4,1.4c-18,18-42.8,29.1-70.3,29.1H466c-54.9,0-99.3-44.5-99.3-99.3
					c0-9.2,3.7-17.5,9.7-23.5c3.5-3.5,7.8-6.3,12.6-7.9C419.7,830.5,566.2,818.1,622.6,808.4z"/>
				<path class="st3" d="M518.5,873.7h-20c-9.7,0-17.6-7.9-17.6-17.6v-17.5H536v17.5C536,865.9,528.2,873.7,518.5,873.7z"/>
				<circle class="st22" cx="508.5" cy="924.4" r="65.6"/>
				<circle class="st3" cx="508.5" cy="924.4" r="41.7"/>
				<path class="st3" d="M650.4,560.9L650.4,560.9V431.1l0,0c25.1,0,45.5,20.4,45.5,45.5v38.9C695.8,540.5,675.5,560.9,650.4,560.9z
					"/>
				<path class="st3" d="M575.9,511.5H442.4c-22.2,0-40.2-18-40.2-40.2v0c0-22.2,18-40.2,40.2-40.2h133.5c22.2,0,40.2,18,40.2,40.2
					v0C616.1,493.5,598.1,511.5,575.9,511.5z"/>
				<path class="st6" d="M592,508.1c-4.9,2.2-10.4,3.4-16.1,3.4H442.4c-22.2,0-40.2-18-40.2-40.2c0-11.1,4.5-21.1,11.8-28.4
					c4.5-4.5,10-7.9,16.2-9.9C450.5,499.8,543.4,508.4,592,508.1z"/>
				<path class="st0" d="M574,494.8H444.3c-13,0-23.5-10.5-23.5-23.5v0c0-13,10.5-23.5,23.5-23.5H574c13,0,23.5,10.5,23.5,23.5v0
					C597.5,484.3,587,494.8,574,494.8z"/>
				<g>
					<defs>
						<path id="SVGID_3_" d="M574,494.8H444.3c-13,0-23.5-10.5-23.5-23.5v0c0-13,10.5-23.5,23.5-23.5H574c13,0,23.5,10.5,23.5,23.5
							v0C597.5,484.3,587,494.8,574,494.8z"/>
					</defs>
					<clipPath id="SVGID_4_">
						<use xlink:href="#SVGID_3_"  style="overflow:visible;"/>
					</clipPath>
					<g class="st24">
						<circle class="st3" cx="452.3" cy="469.8" r="27.5"/>
						<circle class="st25" cx="452.3" cy="469.8" r="21.4"/>
						<circle class="st3" cx="564.7" cy="469.8" r="27.5"/>
						<circle class="st25" cx="564.7" cy="469.8" r="21.4"/>
						<circle class="st0" cx="553.8" cy="455.3" r="14.5"/>
						<circle class="st0" cx="464.7" cy="455.3" r="14.5"/>
					</g>
				</g>
				<path class="st0" d="M573.4,639.6H444.9c-23.6,0-42.7-19.1-42.7-42.7v0c0-23.6,19.1-42.7,42.7-42.7h128.4
					c23.6,0,42.7,19.1,42.7,42.7v0C616.1,620.4,597,639.6,573.4,639.6z"/>
				<path class="st16" d="M598.3,631.5c-7,5.1-15.6,8-24.9,8H444.9c-23.6,0-42.7-19.1-42.7-42.7c0-11.8,4.8-22.5,12.5-30.2
					c7.7-7.7,18.4-12.5,30.2-12.5h5.8C484.6,599.5,537.9,629.4,598.3,631.5z"/>
				<rect x="440.8" y="554.2" class="st22" width="19.3" height="85.4"/>
				<rect x="502.1" y="554.2" class="st22" width="19.3" height="85.4"/>
				<rect x="562.8" y="554.2" class="st22" width="19.3" height="85.4"/>
				<path class="st3" d="M554.5,803.9h-91.9c-27.5,0-49.8-22.3-49.8-49.8v-1.5c0-6.1,5-11.1,11.1-11.1h169.4c6.1,0,11.1,5,11.1,11.1
					v1.5C604.3,781.6,582,803.9,554.5,803.9z"/>
				<path class="st23" d="M343.9,305.8L343.9,305.8c-5.7,0-10.4,4.7-10.4,10.4v190.4c0,5.7,4.7,10.4,10.4,10.4h0
					c5.7,0,10.4-4.7,10.4-10.4V316.2C354.3,310.5,349.6,305.8,343.9,305.8z"/>
				<path class="st6" d="M366.6,560.9L366.6,560.9l0-129.8h0c-25.1,0-45.5,20.4-45.5,45.5v38.9C321.2,540.5,341.5,560.9,366.6,560.9
					z"/>
				<path class="st3" d="M343.9,328.6L343.9,328.6c-11.7,0-21.2-9.5-21.2-21.2v0c0-11.7,9.5-21.2,21.2-21.2h0
					c11.7,0,21.2,9.5,21.2,21.2v0C365.1,319.1,355.6,328.6,343.9,328.6z"/>
				<line class="st26" x1="420.8" y1="349.5" x2="562.8" y2="349.5"/>
				<path class="st26" d="M588.3,351.3c0,0,31.8,3.2,43,38.7"/>
				<line class="st9" x1="402.2" y1="720.8" x2="574.1" y2="720.8"/>
				<line class="st9" x1="597" y1="720.8" x2="621.8" y2="720.8"/>
				<path class="st6" d="M389.6,862.2c-0.6,4.1-1.9,8.2-3.9,12.1c-0.3,0.5-0.5,1-0.8,1.5l-13.2-6.8c0.3-0.5,0.6-0.9,0.8-1.5
					c1.2-2.3,2-4.7,2.4-7.1C379.5,861.3,384.4,861.9,389.6,862.2z"/>
				<path class="st6" d="M339.6,878.1l-6.8,13.2c-19.3-9.9-26.9-33.5-16.9-52.8c0.5-0.9,1-1.8,1.6-2.7c0.7-1.1,1.4-2.2,2.2-3.2
					c3.5,3.1,7.4,6.2,11.7,9.1c-0.8,1.1-1.6,2.3-2.2,3.5c-0.7,1.3-1.2,2.6-1.6,3.9C324,860.3,328.9,872.6,339.6,878.1z"/>
				<path class="st27" d="M698.9,877c-3.6,5.9-8.9,10.9-15.5,14.3l-6.8-13.2c3-1.5,5.5-3.6,7.5-6C689.7,874.4,694.8,876,698.9,877z"
					/>
				<path class="st27" d="M649.1,838.5c-0.7,0.7-1.4,1.4-2.1,2.2c-6.2,7.3-7.8,17.9-3.1,26.9c0.2,0.5,0.5,1,0.8,1.5l-13.2,6.8
					c-0.3-0.5-0.5-0.9-0.8-1.5c-9-17.6-3.4-38.9,12.4-50c0.7-0.5,1.4-1,2.2-1.4C645.9,828.7,647.2,833.8,649.1,838.5z"/>
				<path class="st23" d="M565.3,957.2C554,976.8,532.8,990,508.5,990c-36.2,0-65.6-29.4-65.6-65.6c0-18.7,7.8-35.5,20.4-47.5
					c3.3,8.6,7.1,16.3,11.3,23.3c-4.9,6.8-7.8,15.2-7.8,24.2c0,23,18.7,41.7,41.7,41.7c12.7,0,24.1-5.7,31.7-14.7
					C548.8,954.2,557.3,956,565.3,957.2z"/>
				<path class="st27" d="M540.2,951.4c-7.6,9-19,14.7-31.7,14.7c-23,0-41.7-18.7-41.7-41.7c0-9,2.9-17.4,7.8-24.2
					C492,928.6,516.5,943.7,540.2,951.4z"/>
				<path class="st6" d="M578.5,797.7c-7.1,3.9-15.3,6.2-24,6.2h-91.9c-27.5,0-49.9-22.3-49.9-49.9v-1.5c0-6.1,5-11.1,11.1-11.1
					h15.3C460.2,802,549.7,800,578.5,797.7z"/>
				<path class="st6" d="M508.5,706.4h-63.4v-19.9h21.5C476.5,696,492,702.2,508.5,706.4z"/>
				<path class="st6" d="M689.8,538c-7.8,13.7-22.6,22.9-39.5,22.9v-83C656.3,516.7,674.9,532,689.8,538z"/>
				<path class="st6" d="M366.6,527.1v33.8c-25.1,0-45.5-20.4-45.5-45.5v-38.9c0-7.2,1.7-14.1,4.7-20.2
					C330.3,508.5,352.7,523.1,366.6,527.1z"/>
				<path class="st6" d="M363.5,315.4c-1.1,2.6-2.7,5-4.6,6.9c-3.8,3.8-9.1,6.2-15,6.2c-11.7,0-21.2-9.5-21.2-21.2
					c0-5.9,2.4-11.1,6.2-15c0.7-0.7,1.4-1.3,2.2-1.9c-1,2.5-1.6,5.2-1.6,8c0,11.7,9.5,21.2,21.2,21.2
					C355.5,319.7,359.9,318.1,363.5,315.4z"/>
			</g>
			<g>
				<path class="st28" d="M683.2,1377.7v213.6c0,15.7-12.7,28.4-28.4,28.4H361.2c-15.7,0-28.4-12.7-28.4-28.4v-213.6
					c0-80.2,53.8-147.8,127.3-168.6c15.2-4.3,31.3-6.6,47.9-6.6c16.6,0,32.6,2.3,47.9,6.6c16,4.5,31.1,11.3,44.9,19.9
					c11.3,7.1,21.7,15.4,31,24.8c16.8,16.8,30.2,37,39.1,59.5C678.9,1333.3,683.2,1354.9,683.2,1377.7z"/>
				<path class="st29" d="M683.2,1482.9v108.4c0,15.7-12.7,28.4-28.4,28.4H361.2c-15.7,0-28.4-12.7-28.4-28.4v-213.6
					c0-50.2,21.1-95.5,55-127.4v102.5c0,71.9,58.2,130.1,130.1,130.1H683.2z"/>
				<path class="st30" d="M387.8,1275.8c0,0,71.6-88.5,178.1-45.1"/>
				<path class="st30" d="M588.6,1241c0,0,24,11.7,41.9,34.8"/>
				<g>
					<path class="st0" d="M426.5,1448.1H448v31.7h-21.5c-8.8,0-15.9-7.1-15.9-15.9c0-4.4,1.8-8.3,4.6-11.2
						C418.1,1449.9,422.1,1448.1,426.5,1448.1z"/>
					<rect x="461.4" y="1448.1" class="st0" width="22.3" height="31.7"/>
					<rect x="497" y="1448.1" class="st0" width="22.1" height="31.7"/>
					<rect x="532.5" y="1448.1" class="st0" width="22.3" height="31.7"/>
					<path class="st0" d="M605.4,1463.9c0,4.4-1.8,8.3-4.6,11.2c-2.8,2.9-6.9,4.6-11.2,4.6h-21.5v-31.7h21.5
						C598.4,1448.1,605.4,1455.2,605.4,1463.9z"/>
				</g>
				<path class="st3" d="M683.2,1523.5v67.9c0,15.7-12.7,28.4-28.4,28.4H361.2c-15.7,0-28.4-12.7-28.4-28.4v-67.9H683.2z"/>
				<path class="st6" d="M683.1,1593.4c-1,14.7-13.3,26.3-28.3,26.3H361.2c-15.7,0-28.4-12.7-28.4-28.4v-67.9h54.2v0.9
					c0,38.1,30.9,69,69,69H683.1z"/>
				<path class="st28" d="M513.1,1586.6h-13.2c-4.6,0-8.4-3.7-8.4-8.4V1565c0-4.6,3.7-8.4,8.4-8.4h13.2c4.6,0,8.4,3.7,8.4,8.4v13.2
					C521.4,1582.8,517.7,1586.6,513.1,1586.6z"/>
				<path class="st28" d="M558.6,1583.6H548c-3.7,0-6.7-3-6.7-6.7v-10.7c0-3.7,3-6.7,6.7-6.7h10.7c3.7,0,6.7,3,6.7,6.7v10.7
					C565.4,1580.6,562.3,1583.6,558.6,1583.6z"/>
				<path class="st28" d="M465.1,1583.6h-10.7c-3.7,0-6.7-3-6.7-6.7v-10.7c0-3.7,3-6.7,6.7-6.7h10.7c3.7,0,6.7,3,6.7,6.7v10.7
					C471.8,1580.6,468.8,1583.6,465.1,1583.6z"/>
				<g>
					<path class="st0" d="M603.3,1546.2H356.2c-2.5,0-4.5-2-4.5-4.5s2-4.5,4.5-4.5h247.1c2.5,0,4.5,2,4.5,4.5
						S605.8,1546.2,603.3,1546.2z"/>
					<line class="st31" x1="624.3" y1="1541.7" x2="658.5" y2="1541.7"/>
				</g>
				<path class="st28" d="M442.2,1637.4h-38.4c0,0-17.8,28.5-23.4,66.4h61.8V1637.4z"/>
				<path class="st29" d="M442.2,1694.6v9.2h-61.8c5.6-37.9,23.4-66.4,23.4-66.4h0.1C396.9,1685.3,424.8,1693.8,442.2,1694.6z"/>
				<path class="st3" d="M444.5,1715h-93.1l0,0c0-23.3,18.9-42.1,42.1-42.1h8.9C425.7,1672.8,444.5,1691.7,444.5,1715L444.5,1715z"
					/>
				<path class="st28" d="M574.7,1637.4h38.4c0,0,17.8,28.5,23.4,66.4h-61.8V1637.4z"/>
				<path class="st29" d="M636.5,1703.8h-61.8v-66.4h2.9c3.3,43.1,42.3,47.1,54.9,47.3C634.1,1690.7,635.5,1697.1,636.5,1703.8z"/>
				<path class="st3" d="M572.3,1715h93.1l0,0c0-23.3-18.9-42.1-42.1-42.1h-8.9C591.2,1672.8,572.3,1691.7,572.3,1715L572.3,1715z"
					/>
				<path class="st3" d="M683.2,1554.2h13.6c36.8,0,66.6-29.8,66.6-66.6v-290.3h26.7v295.2c0,47.1-38.3,85.2-85.4,84.9l-21.5-0.1
					V1554.2z"/>
				<path class="st28" d="M701.3,1600.2h-18.1v-74.8h18.1c12.5,0,22.5,10.1,22.5,22.5v29.7C723.9,1590.1,713.8,1600.2,701.3,1600.2z
					"/>
				<path class="st28" d="M746.5,1198.4c-16.4-16.7-16.1-43.4,0.6-59.8l11.2,11.4c-10.4,10.2-10.5,26.8-0.3,37.2
					c10.2,10.4,26.8,10.5,37.1,0.4c10.4-10.2,10.5-26.8,0.4-37.1c-0.4-0.4-0.9-0.9-1.3-1.2l11.5-11.2c0.5,0.4,0.9,0.8,1.3,1.3
					c16.3,16.7,16,43.4-0.6,59.7C789.6,1215.3,762.9,1215.1,746.5,1198.4z"/>
				<circle class="st28" cx="772" cy="1507.4" r="32.5"/>
				<path class="st3" d="M333.1,1554.2h-13.6c-36.8,0-66.6-29.8-66.6-66.6v-290.3h-26.7v295.2c0,47.1,38.3,85.2,85.4,84.9l21.5-0.1
					V1554.2z"/>
				<path class="st28" d="M315,1600.2h18.1v-74.8H315c-12.5,0-22.5,10.1-22.5,22.5v29.7C292.4,1590.1,302.5,1600.2,315,1600.2z"/>
				<path class="st28" d="M269.7,1198.4c16.4-16.7,16.1-43.4-0.6-59.8L258,1150c10.4,10.2,10.5,26.8,0.3,37.2
					c-10.2,10.4-26.8,10.5-37.1,0.4c-10.4-10.2-10.5-26.8-0.4-37.1c0.4-0.4,0.9-0.9,1.3-1.2l-11.5-11.2c-0.5,0.4-0.9,0.8-1.3,1.3
					c-16.3,16.7-16,43.4,0.6,59.7C226.7,1215.3,253.4,1215.1,269.7,1198.4z"/>
				<circle class="st28" cx="244.3" cy="1507.4" r="32.5"/>
				<path class="st3" d="M636.8,1637.5H379.3c-9.8,0-17.8-8-17.8-17.8v0h293v0C654.6,1629.5,646.6,1637.5,636.8,1637.5z"/>
				<g>
					<path class="st3" d="M587.4,1399.2H428.7c-26.4,0-47.8-21.4-47.8-47.8v0c0-26.4,21.4-47.8,47.8-47.8h158.7
						c26.4,0,47.8,21.4,47.8,47.8v0C635.1,1377.8,613.8,1399.2,587.4,1399.2z"/>
					<path class="st6" d="M630.4,1372.1c-2.3,4.9-5.5,9.3-9.3,13.1c-8.6,8.6-20.6,14-33.8,14H428.7c-26.4,0-47.8-21.4-47.8-47.8
						c0-13.2,5.3-25.1,14-33.8c8.6-8.6,20.5-13.9,33.6-14v14.3c0,29.9,24.2,54.1,54.1,54.1H630.4z"/>
					<path class="st0" d="M585.1,1379.4H431c-15.4,0-27.9-12.5-27.9-27.9l0,0c0-15.4,12.5-27.9,27.9-27.9h154.1
						c15.4,0,27.9,12.5,27.9,27.9l0,0C613,1366.9,600.5,1379.4,585.1,1379.4z"/>
					<path class="st32" d="M603.9,1372.1c-5,4.5-11.6,7.3-18.8,7.3H431c-15.4,0-27.9-12.5-27.9-27.9c0-7.7,3.1-14.7,8.2-19.8
						c4.6-4.6,10.7-7.6,17.6-8.1c2.8,27.3,25.8,48.5,53.8,48.5H603.9z"/>
					<g>
						<defs>
							<path id="SVGID_5_" d="M585.1,1379.4H431c-15.4,0-27.9-12.5-27.9-27.9l0,0c0-15.4,12.5-27.9,27.9-27.9h154.1
								c15.4,0,27.9,12.5,27.9,27.9l0,0C613,1366.9,600.5,1379.4,585.1,1379.4z"/>
						</defs>
						<clipPath id="SVGID_6_">
							<use xlink:href="#SVGID_5_"  style="overflow:visible;"/>
						</clipPath>
						<g class="st33">
							<circle class="st3" cx="440.4" cy="1349.6" r="32.7"/>
							<circle class="st25" cx="440.4" cy="1349.6" r="25.4"/>
							<circle class="st3" cx="574.1" cy="1349.6" r="32.7"/>
							<circle class="st25" cx="574.1" cy="1349.6" r="25.4"/>
							<circle class="st0" cx="561.1" cy="1332.4" r="17.2"/>
							<circle class="st0" cx="455.2" cy="1332.4" r="17.2"/>
						</g>
					</g>
				</g>
				<path class="st29" d="M801.6,1520.8c-5.1,11.3-16.4,19.1-29.6,19.1c-18,0-32.5-14.6-32.5-32.5c0-12.3,6.8-23,16.9-28.5
					c-1.9,4.1-2.9,8.7-2.9,13.4c0,18,14.6,32.5,32.5,32.5C791.6,1524.9,796.9,1523.4,801.6,1520.8z"/>
				<path class="st29" d="M721.6,1587.5c-3.7,7.5-11.4,12.7-20.3,12.7h-18.1v-74.8h5.9C685.5,1572.9,706.3,1584.9,721.6,1587.5z"/>
				<path class="st29" d="M333.1,1583.9v16.3H315c-12.4,0-22.5-10.1-22.5-22.5v-29.7c0-9.7,6.1-18,14.7-21.1
					C304,1572.5,321.1,1582.4,333.1,1583.9z"/>
				<path class="st29" d="M271.5,1525.3c-5.8,8.8-15.8,14.6-27.2,14.6c-18,0-32.5-14.6-32.5-32.5c0-13.7,8.5-25.4,20.5-30.2
					c-3.4,5.1-5.3,11.3-5.3,17.9c0,18,14.6,32.5,32.5,32.5C263.7,1527.6,267.8,1526.7,271.5,1525.3z"/>
				<path class="st29" d="M812.7,1190.9c-1.8,2.9-3.9,5.6-6.5,8.1c-16.7,16.3-43.4,16.1-59.7-0.6c-9.9-10.1-13.7-23.9-11.5-36.8
					c5.9,11.3,13.4,19,21.5,24c0.4,0.5,0.9,1.1,1.4,1.6c7,7.2,17.1,9.5,26.1,6.8c0,0,0,0,0,0C794.5,1194.7,804.6,1193,812.7,1190.9z
					"/>
				<path class="st29" d="M275.5,1191c-1.6,2.6-3.6,5.1-5.8,7.4c-16.3,16.7-43.1,16.9-59.7,0.6c-10.5-10.3-14.5-24.7-12-38
					c5.7,11.2,12.9,18.9,20.8,24c0.7,0.9,1.5,1.8,2.3,2.6c7.1,6.9,17,9,25.8,6.4C257.4,1194.7,267.4,1193.1,275.5,1191z"/>
				<path class="st6" d="M665.4,1715h-93.1c0-12.7,5.6-24.1,14.5-31.8c16.2,31.3,59.8,26.1,77.6,22.5
					C665.1,1708.6,665.4,1711.8,665.4,1715z"/>
				<path class="st6" d="M444.5,1715h-93.1c0-11.6,4.7-22.2,12.3-29.8c2.2-2.2,4.5-4.1,7.1-5.7c8,33.7,55.1,31.9,73.3,29.8
					C444.4,1711.1,444.5,1713,444.5,1715z"/>
				<path class="st11" d="M805.9,1145.7c0,0,12.5,15,3.6,39"/>
				<path class="st11" d="M268.2,1147.1c0,0,15.8,14.3,1.8,40.5"/>
				<path class="st11" d="M244.3,1481.5c0,0,32.2,5.5,21.8,40.5"/>
				<circle class="st0" cx="234.5" cy="1482.7" r="3.7"/>
				<path class="st11" d="M774.3,1481.5c0,0,32.2,5.5,21.8,40.5"/>
				<circle class="st0" cx="764.4" cy="1482.7" r="3.7"/>
				<line class="st11" x1="716.4" y1="1581.4" x2="716.4" y2="1546.2"/>
				<path class="st11" d="M693.9,1532c0,0,14.1-2.4,17.7,5.3"/>
				<line class="st11" x1="309.6" y1="1533.5" x2="326.5" y2="1533.5"/>
				<path class="st11" d="M607.8,1643.3c0,0,9.4,13.6,11.1,23.3"/>
				<line class="st11" x1="435.8" y1="1653.8" x2="435.8" y2="1681.2"/>
				<circle class="st0" cx="436" cy="1643.6" r="3.8"/>
				<path class="st11" d="M608.9,1678.7c0,0,38.1-7.5,49.7,25.1"/>
				<circle class="st0" cx="598.5" cy="1683.2" r="4.4"/>
				<path class="st11" d="M388.3,1680.2c0,0,38.1-7.5,49.7,25.1"/>
				<circle class="st0" cx="379.2" cy="1683.2" r="4.4"/>
			</g>
			<g>
				<path class="st34" d="M1564.6,1298.6h-57.2c-7.2,0-13-5.8-13-13l0,0c0-7.2,5.8-13,13-13h57.2c7.2,0,13,5.8,13,13l0,0
					C1577.6,1292.7,1571.8,1298.6,1564.6,1298.6z"/>
				<path class="st35" d="M1577.6,1285.6c0,3.6-1.5,6.9-3.8,9.2c-2.4,2.4-5.6,3.8-9.2,3.8h-57.2c-7.2,0-13-5.8-13-13
					c0-2.2,0.5-4.2,1.5-6c2.2,4.1,6.5,7,11.5,7h57.2c3.6,0,6.9-1.5,9.2-3.8c0.9-0.9,1.7-2,2.3-3.2
					C1577.1,1281.3,1577.6,1283.4,1577.6,1285.6z"/>
				<circle class="st3" cx="1589.7" cy="1283.5" r="30.6"/>
				<path class="st3" d="M1494.4,1318.8h-35.3v-70.5h35.3c19.5,0,35.3,15.8,35.3,35.3v0C1529.6,1303,1513.8,1318.8,1494.4,1318.8z"
					/>
				<path class="st6" d="M1525.7,1299.7c-1.7,3.2-3.8,6.2-6.4,8.7c-6.4,6.4-15.2,10.3-24.9,10.3h-35.3v-70.5h6.1
					C1467.7,1302.8,1509,1302.2,1525.7,1299.7z"/>
				<path class="st34" d="M1095,1298.6h57.2c7.2,0,13-5.8,13-13l0,0c0-7.2-5.8-13-13-13H1095c-7.2,0-13,5.8-13,13l0,0
					C1082,1292.7,1087.8,1298.6,1095,1298.6z"/>
				<path class="st35" d="M1165.3,1285.6c0,7.2-5.8,13-13,13H1095c-3.6,0-6.8-1.5-9.2-3.8c-2.4-2.4-3.8-5.6-3.8-9.2
					c0-2.1,0.5-4.1,1.4-5.8c0.6,1.3,1.5,2.4,2.4,3.4c2.4,2.4,5.6,3.8,9.2,3.8h57.2c5.1,0,9.5-2.9,11.6-7.2
					C1164.8,1281.5,1165.3,1283.5,1165.3,1285.6z"/>
				<circle class="st3" cx="1069.9" cy="1283.5" r="30.6"/>
				<path class="st3" d="M1165.3,1318.8h35.3v-70.5h-35.3c-19.5,0-35.3,15.8-35.3,35.3v0C1130,1303,1145.8,1318.8,1165.3,1318.8z"/>
				<path class="st6" d="M1200.5,1297.9v20.9h-35.3c-9.7,0-18.6-4-24.9-10.3c-6.4-6.4-10.3-15.2-10.3-24.9
					c0-12.2,6.1-22.9,15.5-29.2C1146.1,1301.4,1182.7,1301,1200.5,1297.9z"/>
				<path class="st34" d="M1285,1582.4l-10.1,98.5c-0.7,7,4.8,13.1,11.8,13.1l0,0c6,0,11.1-4.5,11.8-10.5l11.5-101.1H1285z"/>
				<path class="st36" d="M1291.8,1692.9c-1.6,0.7-3.3,1.2-5.1,1.2c-7,0-12.5-6.1-11.8-13.1l10.1-98.5h10.2l-10.1,98.5
					C1284.6,1686.1,1287.4,1690.8,1291.8,1692.9z"/>
				<path class="st3" d="M1320.4,1714.8h-72.8v0c0-18.2,14.8-33,33-33h6.9C1305.6,1681.9,1320.4,1696.6,1320.4,1714.8L1320.4,1714.8
					z"/>
				<circle class="st3" cx="1291.9" cy="1637.7" r="20"/>
				<path class="st34" d="M1377.8,1582.4l10.1,98.5c0.7,7-4.8,13.1-11.8,13.1h0c-6,0-11.1-4.5-11.8-10.5l-11.5-101.1H1377.8z"/>
				<path class="st36" d="M1382.5,1692.1c-1.8,1.2-4.1,1.9-6.5,1.9c-3,0-5.8-1.1-7.9-3c-2.1-1.9-3.5-4.5-3.9-7.5l-11.5-101.1h11
					l11.4,100c0.3,3,1.8,5.6,3.9,7.5C1380,1690.9,1381.2,1691.6,1382.5,1692.1z"/>
				<path class="st3" d="M1342.3,1714.8h72.8v0c0-18.2-14.8-33-33-33h-6.9C1357.1,1681.9,1342.3,1696.6,1342.3,1714.8L1342.3,1714.8
					z"/>
				<circle class="st3" cx="1370.8" cy="1637.7" r="20"/>
				<path class="st34" d="M1393.2,1445.9h-123.7c-48.8,0-88.3-39.6-88.3-88.3v-123.7c0-48.8,39.6-88.3,88.3-88.3h123.7
					c48.8,0,88.3,39.6,88.3,88.3v123.7C1481.5,1406.4,1442,1445.9,1393.2,1445.9z"/>
				<path class="st35" d="M1355.3,1389.5c-3.9,0-7.8-0.2-11.6-0.6c-8.6-0.9-16.9-2.7-24.9-5.3c-5.2-1.7-10.2-3.8-15-6.2v11.8h-25.1
					v-28.7c-11.5-10.2-21-22.7-27.8-36.7c-4.1-8.5-7.2-17.5-9.1-26.9c0,0,0,0,0,0c-0.8-3.7-1.3-7.5-1.7-11.3v0c-0.4-4-0.6-8-0.6-12
					v-122.6c-34.1,12.3-58.4,44.9-58.4,83.1v123.7c0,48.8,39.5,88.3,88.3,88.3h123.7c37.4,0,69.3-23.2,82.2-56L1355.3,1389.5z
					 M1263.8,1389.1h-24.2c-9.9,0-17.8-8-17.8-17.8c0-5,2-9.4,5.2-12.6c3.2-3.2,7.7-5.2,12.6-5.2h24.2V1389.1z"/>
				<g>
					<g>
						<path class="st0" d="M1270.9,1324.5h-12.2c-19.4,0-35.1-15.7-35.1-35.1V1265c0-19.4,15.7-35.1,35.1-35.1h12.2
							c19.4,0,35.1,15.7,35.1,35.1v24.4C1306,1308.8,1290.3,1324.5,1270.9,1324.5z"/>
						<path class="st0" d="M1391.8,1324.5h12.2c19.4,0,35.1-15.7,35.1-35.1V1265c0-19.4-15.7-35.1-35.1-35.1h-12.2
							c-19.4,0-35.1,15.7-35.1,35.1v24.4C1356.7,1308.8,1372.4,1324.5,1391.8,1324.5z"/>
						<path class="st37" d="M1305,1297.8c-3.7,15.4-17.6,26.8-34.1,26.8h-12.2c-19.4,0-35.1-15.7-35.1-35.1V1265
							c0-11.4,5.5-21.6,13.9-28c-0.7,2.7-1,5.4-1,8.3v24.4c0,19.4,15.7,35.1,35.1,35.1h12.2
							C1291.8,1304.9,1299.1,1302.2,1305,1297.8z"/>
						<path class="st37" d="M1438.1,1297.8c-3.7,15.4-17.6,26.8-34.1,26.8h-12.2c-19.4,0-35.1-15.7-35.1-35.1V1265
							c0-11.4,5.5-21.6,13.9-28c-0.7,2.7-1,5.4-1,8.3v24.4c0,19.4,15.7,35.1,35.1,35.1h12.2
							C1424.9,1304.9,1432.2,1302.2,1438.1,1297.8z"/>
					</g>
					<path class="st37" d="M1263.8,1353.4v35.7h-24.2c-9.9,0-17.8-8-17.8-17.8c0-5,2-9.4,5.2-12.6c3.2-3.2,7.7-5.2,12.6-5.2H1263.8z
						"/>
					<path class="st37" d="M1303.9,1377.3v11.8h-25.1v-28.7C1286.4,1367.1,1294.8,1372.8,1303.9,1377.3z"/>
					<path class="st0" d="M1303.9,1353.4v23.9c-9.1-4.5-17.5-10.2-25.1-16.9v-7H1303.9z"/>
					<rect x="1318.9" y="1353.4" class="st0" width="24.9" height="35.7"/>
					<rect x="1358.8" y="1353.4" class="st0" width="25.1" height="35.7"/>
					<path class="st0" d="M1440.9,1371.3c0,5-2,9.4-5.2,12.6c-3.2,3.2-7.7,5.2-12.6,5.2h-24.2v-35.7h24.2
						C1433,1353.4,1440.9,1361.4,1440.9,1371.3z"/>
					<path class="st3" d="M1401.6,1304.8h-9.7c-13.1,0-23.8-10.7-23.8-23.8v-9.7c0-13.1,10.7-23.8,23.8-23.8h9.7
						c13.1,0,23.8,10.7,23.8,23.8v9.7C1425.4,1294.1,1414.7,1304.8,1401.6,1304.8z"/>
					<path class="st3" d="M1269.6,1304.8h-9.7c-13.1,0-23.8-10.7-23.8-23.8v-9.7c0-13.1,10.7-23.8,23.8-23.8h9.7
						c13.1,0,23.8,10.7,23.8,23.8v9.7C1293.4,1294.1,1282.7,1304.8,1269.6,1304.8z"/>
					<path class="st15" d="M1267.9,1295.2h-6.5c-8.7,0-15.8-7.1-15.8-15.8v-6.5c0-8.7,7.1-15.8,15.8-15.8h6.5
						c8.7,0,15.8,7.1,15.8,15.8v6.5C1283.7,1288.1,1276.7,1295.2,1267.9,1295.2z"/>
					<path class="st15" d="M1399.9,1295.2h-6.5c-8.7,0-15.8-7.1-15.8-15.8v-6.5c0-8.7,7.1-15.8,15.8-15.8h6.5
						c8.7,0,15.8,7.1,15.8,15.8v6.5C1415.7,1288.1,1408.7,1295.2,1399.9,1295.2z"/>
					<circle class="st0" cx="1383.1" cy="1260" r="13.5"/>
					<circle class="st0" cx="1282.9" cy="1260" r="13.5"/>
				</g>
				<rect x="1288.7" y="1444.9" class="st3" width="85.4" height="23.1"/>
				<path class="st6" d="M1374.1,1463.8v4.2h-85.4v-23.1h11.8C1311.6,1467.4,1355.9,1465.6,1374.1,1463.8z"/>
				<line class="st38" x1="1245.6" y1="1164.4" x2="1396.6" y2="1164.4"/>
				<path class="st38" d="M1425.4,1169.6c0,0,28.9,10.4,33.7,38.2"/>
				<path class="st34" d="M1198.6,1513H1125c-6.7,0-12.1-5.4-12.1-12.1l0,0c0-6.7,5.4-12.1,12.1-12.1h73.6c6.7,0,12.1,5.4,12.1,12.1
					l0,0C1210.7,1507.6,1205.3,1513,1198.6,1513z"/>
				<path class="st36" d="M1210.7,1500.9c0,3.4-1.4,6.4-3.6,8.6c-2.2,2.2-5.2,3.6-8.6,3.6H1125c-6.7,0-12.1-5.4-12.1-12.1
					c0-2,0.5-3.9,1.3-5.5c2,3.9,6.1,6.6,10.8,6.6h73.6c3.4,0,6.4-1.4,8.6-3.6c0.9-0.9,1.6-1.9,2.2-3
					C1210.3,1497,1210.7,1498.9,1210.7,1500.9z"/>
				<path class="st34" d="M1121,1503.6l-36.8-63.8c-3.4-5.8-1.4-13.2,4.4-16.6l0,0c5.8-3.4,13.2-1.4,16.6,4.4l36.8,63.8
					c3.4,5.8,1.4,13.2-4.4,16.6l0,0C1131.8,1511.4,1124.4,1509.4,1121,1503.6z"/>
				<path class="st36" d="M1141.4,1504.6c-1,1.4-2.2,2.5-3.8,3.4c-1.9,1.1-4,1.6-6.1,1.6c-4.2,0-8.3-2.2-10.5-6.1l-36.8-63.8
					c-3.4-5.8-1.4-13.2,4.4-16.6c1.9-1.1,3.9-1.6,5.9-1.6c-2.7,3.8-3.1,8.9-0.7,13.2l36.8,63.8c2.3,3.9,6.3,6.1,10.5,6.1H1141.4z"/>
				<circle class="st3" cx="1131.2" cy="1497.2" r="20"/>
				<path class="st3" d="M1135.9,1399.5c0,22.2-18,40.3-40.3,40.3c-22.2,0-40.2-18-40.2-40.3c0-3.2,0.4-6.4,1.2-9.4h18.1
					c-1.3,2.9-2,6.1-2,9.5c0,12.7,10.3,23,23,23c12.7,0,23-10.3,23-23c0-3.4-0.7-6.6-2-9.5h18.2
					C1135.5,1393,1135.9,1396.2,1135.9,1399.5z"/>
				<path class="st6" d="M1119.7,1431.7c-6.7,5-15.1,8-24.2,8c-22.2,0-40.2-18-40.2-40.3c0-3.2,0.4-6.4,1.2-9.4h7.2
					C1067.6,1428.5,1097.7,1433.4,1119.7,1431.7z"/>
				<path class="st3" d="M1249.5,1530.4h-28.3c-15.6,0-28.3-12.7-28.3-28.3v0c0-15.6,12.7-28.3,28.3-28.3h28.3V1530.4z"/>
				<path class="st6" d="M1249.5,1514.1v16.3h-28.3c-15.6,0-28.3-12.7-28.3-28.3c0-7.8,3.2-14.9,8.3-20c1.6-1.6,3.5-3.1,5.5-4.3
					C1203.6,1519.9,1237.3,1516.6,1249.5,1514.1z"/>
				<path class="st34" d="M1464.3,1513h73.6c6.7,0,12.1-5.4,12.1-12.1l0,0c0-6.7-5.4-12.1-12.1-12.1h-73.6
					c-6.7,0-12.1,5.4-12.1,12.1l0,0C1452.2,1507.6,1457.6,1513,1464.3,1513z"/>
				<path class="st36" d="M1550.1,1500.9c0,3.4-1.4,6.4-3.6,8.6c-2.2,2.2-5.2,3.6-8.6,3.6h-73.6c-6.7,0-12.1-5.4-12.1-12.1
					c0-2,0.5-3.9,1.3-5.5c2,3.9,6.1,6.6,10.8,6.6h73.6c3.4,0,6.4-1.4,8.6-3.6c0.9-0.9,1.6-1.9,2.2-3
					C1549.6,1497,1550.1,1498.9,1550.1,1500.9z"/>
				<path class="st34" d="M1541.9,1503.6l36.8-63.8c3.4-5.8,1.4-13.2-4.4-16.6l0,0c-5.8-3.4-13.2-1.4-16.6,4.4l-36.8,63.8
					c-3.4,5.8-1.4,13.2,4.4,16.6l0,0C1531.1,1511.4,1538.5,1509.4,1541.9,1503.6z"/>
				<path class="st36" d="M1534.8,1488.3c-3.4,5.8-1.4,13.2,4.4,16.6c0.4,0.2,0.8,0.4,1.2,0.6c-2.3,2.7-5.7,4.1-9.1,4.1
					c-2.1,0-4.1-0.5-6.1-1.6c-5.8-3.4-7.8-10.8-4.4-16.6l36.8-63.8c2.2-3.9,6.3-6.1,10.5-6.1c1.6,0,3.3,0.3,4.8,1
					c-0.5,0.6-1,1.2-1.4,1.9L1534.8,1488.3z"/>
				<circle class="st3" cx="1531.7" cy="1497.2" r="20"/>
				<path class="st3" d="M1527.1,1399.5c0,22.2,18,40.3,40.3,40.3c22.2,0,40.2-18,40.2-40.3c0-3.2-0.4-6.4-1.2-9.4h-18.1
					c1.3,2.9,2,6.1,2,9.5c0,12.7-10.3,23-23,23c-12.7,0-23-10.3-23-23c0-3.4,0.7-6.6,2-9.5h-18.2
					C1527.4,1393,1527.1,1396.2,1527.1,1399.5z"/>
				<path class="st3" d="M1413.5,1530.4h28.3c15.6,0,28.3-12.7,28.3-28.3v0c0-15.6-12.7-28.3-28.3-28.3h-28.3V1530.4z"/>
				<path class="st6" d="M1466.1,1516.6c-4.9,8.3-14,13.8-24.3,13.8h-28.3v-56.7h17C1427.4,1511.2,1450,1517,1466.1,1516.6z"/>
				<path class="st3" d="M1357.8,1589.7h-52.9c-20.9,0-37.8-16.9-37.8-37.8l0,0c0-20.9,16.9-37.8,37.8-37.8h52.9
					c20.9,0,37.8,16.9,37.8,37.8l0,0C1395.6,1572.8,1378.7,1589.7,1357.8,1589.7z"/>
				<path class="st34" d="M1394.4,1568.9h-126c-17.5,0-31.7-14.2-31.7-31.7v-46.7c0-17.5,14.2-31.7,31.7-31.7h126
					c17.5,0,31.7,14.2,31.7,31.7v46.7C1426,1554.8,1411.9,1568.9,1394.4,1568.9z"/>
				<path class="st36" d="M1426,1537.5c-0.1,17.4-14.3,31.4-31.7,31.4h-126c-17.5,0-31.7-14.2-31.7-31.7v-46.7
					c0-17.1,13.5-31,30.5-31.6v13.9c0,35.7,28.9,64.6,64.6,64.6H1426z"/>
				<path class="st3" d="M1358.8,1554.1h-57.3c-19,0-34.4-15.4-34.4-34.4v0c0-19,15.4-34.4,34.4-34.4h57.3c19,0,34.4,15.4,34.4,34.4
					v0C1393.2,1538.6,1377.8,1554.1,1358.8,1554.1z"/>
				<path class="st6" d="M1388.2,1537.5c-1.4,2.4-3.1,4.5-5.1,6.5c-6.2,6.2-14.8,10.1-24.3,10.1h-57.3c-19,0-34.4-15.4-34.4-34.4
					c0-7.2,2.2-13.9,6-19.5c10.3,22,32.7,37.3,58.6,37.3H1388.2z"/>
				<g>
					<path class="st34" d="M1332.1,1530h-4c-2,0-3.7-1.7-3.7-3.7v-4c0-2,1.7-3.7,3.7-3.7h4c2,0,3.7,1.7,3.7,3.7v4
						C1335.8,1528.3,1334.2,1530,1332.1,1530z"/>
					<path class="st34" d="M1353.9,1530h-4c-2,0-3.7-1.7-3.7-3.7v-4c0-2,1.7-3.7,3.7-3.7h4c2,0,3.7,1.7,3.7,3.7v4
						C1357.6,1528.3,1355.9,1530,1353.9,1530z"/>
					<path class="st34" d="M1310.5,1530h-4c-2,0-3.7-1.7-3.7-3.7v-4c0-2,1.7-3.7,3.7-3.7h4c2,0,3.7,1.7,3.7,3.7v4
						C1314.2,1528.3,1312.6,1530,1310.5,1530z"/>
				</g>
				<line class="st39" x1="1263.9" y1="1473.2" x2="1370.3" y2="1473.2"/>
				<path class="st39" d="M1394.5,1473.2c0,0,19.1,0.2,18.9,24.6"/>
				<path class="st6" d="M1619,1292.2c-3.7,12.7-15.5,22-29.4,22c-16.9,0-30.6-13.7-30.6-30.6c0-11.7,6.6-21.9,16.3-27
					c-0.8,2.7-1.2,5.6-1.2,8.6c0,16.9,13.7,30.6,30.6,30.6C1609.9,1295.7,1614.8,1294.5,1619,1292.2z"/>
				<path class="st6" d="M1099.6,1290.9c-3.3,13.3-15.3,23.2-29.7,23.2c-16.9,0-30.6-13.7-30.6-30.6c0-11,5.8-20.6,14.5-26
					c-0.6,2.4-0.9,4.8-0.9,7.4c0,16.9,13.7,30.6,30.6,30.6C1089.4,1295.5,1095,1293.8,1099.6,1290.9z"/>
				<path class="st6" d="M1150.4,1503c-2.5,8.2-10.1,14.2-19.2,14.2c-11.1,0-20.1-9-20.1-20.1c0-6.8,3.4-12.8,8.6-16.4
					c-0.6,1.8-0.9,3.8-0.9,5.8c0,11.1,9,20,20,20C1143.2,1506.6,1147.2,1505.3,1150.4,1503z"/>
				<path class="st6" d="M1551.1,1502.4c-2.3,8.6-10.1,14.9-19.4,14.9c-11.1,0-20.1-9-20.1-20.1c0-7.4,4-13.8,9.9-17.3
					c-0.4,1.6-0.7,3.4-0.7,5.1c0,11.1,9,20,20,20C1544.6,1505.1,1548.1,1504.1,1551.1,1502.4z"/>
				<path class="st6" d="M1600.4,1422.4c-7.3,10.5-19.4,17.4-33.1,17.4c-22.2,0-40.3-18-40.3-40.3c0-3.2,0.4-6.4,1.1-9.4h10.6
					C1538.9,1436.1,1578.7,1429.5,1600.4,1422.4z"/>
				<path class="st6" d="M1310.5,1645.1c-2.9,7.4-10.2,12.7-18.7,12.7c-11.1,0-20-9-20-20c0-8.5,5.3-15.7,12.7-18.6
					c-0.9,2.3-1.4,4.8-1.4,7.3c0,11.1,9,20,20.1,20C1305.8,1646.4,1308.2,1646,1310.5,1645.1z"/>
				<path class="st6" d="M1389.5,1645.1c-2.9,7.4-10.2,12.7-18.6,12.7c-11.1,0-20.1-9-20.1-20c0-8.5,5.3-15.7,12.7-18.6
					c-0.9,2.3-1.4,4.8-1.4,7.3c0,11.1,9,20,20,20C1384.7,1646.4,1387.2,1646,1389.5,1645.1z"/>
				<path class="st6" d="M1320.4,1714.8h-72.9c0-9.1,3.7-17.3,9.7-23.3c1.5-1.5,3.1-2.9,4.9-4c4.6,11.1,18.4,23.1,57.5,19.9
					C1320.1,1709.8,1320.4,1712.3,1320.4,1714.8z"/>
				<path class="st6" d="M1415.2,1714.8h-72.9c0-10.7,5.1-20.2,13-26.2c5.1,10.9,19.7,22.2,59,18.7
					C1414.9,1709.7,1415.2,1712.2,1415.2,1714.8z"/>
				<path class="st11" d="M1594,1262c0,0,22,2.7,18.3,27"/>
				<circle class="st0" cx="1582.7" cy="1263.4" r="3.9"/>
				<path class="st11" d="M1074.1,1262c0,0,22,2.7,18.3,27"/>
				<circle class="st0" cx="1062.8" cy="1263.4" r="3.9"/>
				<path class="st11" d="M1503.1,1259.5c0,0,21.7,8.7,18,33"/>
				<circle class="st0" cx="1491.8" cy="1258.1" r="3.9"/>
				<path class="st11" d="M1150.5,1260c0,0,6.2-6.6,25.2-5.6"/>
				<path class="st11" d="M1602.6,1394.9c0,0,0.3,18-6.4,25"/>
				<path class="st11" d="M1129.5,1395.9c0,0,2.2,21.4-15.3,31.5"/>
				<path class="st11" d="M1533.5,1482.2c0,0,16.1,4.3,13.4,18.7"/>
				<circle class="st0" cx="1525.3" cy="1483.8" r="3.3"/>
				<path class="st11" d="M1445.4,1480.5c0,0,24.7,5,15.6,33.4"/>
				<circle class="st0" cx="1434.7" cy="1479.9" r="4.2"/>
				<path class="st11" d="M1209.7,1484.2c0,0,6.1-5.3,22.2-3.4"/>
				<path class="st11" d="M1130.2,1482.9c0,0,17.3-0.6,15.8,19.1"/>
				<circle class="st0" cx="1121.7" cy="1484.7" r="3.4"/>
				<path class="st11" d="M1370.8,1623.4c0,0,16.7,2.4,13.7,19.6"/>
				<path class="st11" d="M1290.2,1621.8c0,0,19.8,1.6,16.1,21.2"/>
				<path class="st11" d="M1370.1,1688.6c0,0,26.9-7,37.7,16.4"/>
				<circle class="st0" cx="1361.2" cy="1693.3" r="4.7"/>
				<path class="st11" d="M1275.9,1688.6c0,0,26.9-7,37.7,16.4"/>
				<circle class="st0" cx="1266.9" cy="1692.4" r="4.7"/>
			</g>
			<line class="st11" x1="2389" y1="1319" x2="2389" y2="1355.9"/>
			<path class="st11" d="M2372.4,1302.1c0,0,9.1-0.2,11.6,7.5"/>
			<path class="st11" d="M1933.3,1305.4c0,0,3.9-5.2,14-4.2"/>
			<line class="st11" x1="1295.2" y1="1492.5" x2="1358.6" y2="1492.5"/>
			<path class="st11" d="M1372.2,1496.3c0,0,10.7,3.9,12.5,17.9"/>
		</g>
		<path class="st11" d="M1091.9,455.6c0,0,10.2-16,40.5-13"/>
		<path class="st11" d="M1498.4,712.4c0,0,50.7,13.4,24.2,100.8"/>
		<path class="st11" d="M1106.2,725.4c0,0,27.4-27.9,51.7-6.6"/>
		<path class="st11" d="M1395.7,945c0,0,37.6-4.2,43.3,32.9"/>
		<path class="st11" d="M1222.5,946.1c0,0,37.3-2.9,45.9,33.4"/>
		<line class="st11" x1="1265.2" y1="890.7" x2="1265.2" y2="933.5"/>
		<line class="st11" x1="1265.2" y1="867" x2="1265.2" y2="878.7"/>
		<path class="st11" d="M1392.6,878.7c0,0,13.8,24.3,16.2,52.6"/>
		<path class="st11" d="M1383.8,862.7c0,0,3.5,3.8,4.8,8.5"/>
		<path class="st11" d="M1455.7,840.1c0,0,9.1-7.1,27.9-6"/>
		<path class="st11" d="M1498.4,838.1c0,0,1.5,0.5,3.8,1.7c18.7,9.3,28.2,30.4,23.8,50.8c-1.5,6.9-4.2,14.5-9,20.6"/>
		<path class="st11" d="M1144.6,834.6c0,0,46.8-1.8,47.9,48.7"/>
		<path class="st11" d="M1113.2,845.7c0,0,7-8.1,17.7-9.3"/>
		<line class="st9" x1="2096" y1="669.9" x2="2239" y2="669.9"/>
		<line class="st9" x1="2256.1" y1="669.9" x2="2271.2" y2="669.9"/>
		<line class="st9" x1="1260.2" y1="694.3" x2="1333.6" y2="694.3"/>
		<line class="st9" x1="1353.2" y1="694.3" x2="1361.8" y2="694.3"/>
		<path class="st11" d="M1384.5,946.7c0,0-7.3,1.2-11.1,4.7"/>
		<path class="st11" d="M1213.6,946.3c0,0-3.7,0.6-6.7,1.9"/>
		<path class="st11" d="M1488.4,710.7c0,0-6.5-2.3-12.9-0.9"/>
		<line class="st11" x1="683.8" y1="471.1" x2="683.8" y2="522.8"/>
		<path class="st11" d="M657.9,441c0,0,15.6,2,20.2,16.8"/>
		<path class="st11" d="M358.6,443.2c0,0-18.3-0.7-23.4,18.8"/>
		<path class="st11" d="M696,757.3c0,0,8.7,12.1-2.5,51"/>
		<path class="st11" d="M683.8,740.6c0,0,4.5,0.6,7.2,6.3"/>
		<path class="st11" d="M331.6,740.6c0,0-7.2-1-11.6,8.1"/>
		<path class="st11" d="M506.3,868.1c0,0,73.9,4.1,51.4,80.4"/>
		<path class="st11" d="M492.9,870.1c0,0-11.5,1.6-20.6,9.3"/>
		<path class="st11" d="M1630.7,448.9c0,0,32.8,3.5,27.1,40.3"/>
		<circle class="st0" cx="1618.5" cy="450.2" r="4.9"/>
		<path class="st11" d="M1509.5,444.4c0,0,36.8-2.7,28.6,48.3"/>
		<circle class="st0" cx="1495.8" cy="445.3" r="4.5"/>
		<path class="st11" d="M992.9,449c0,0,34.9-4.7,35.3,35.4"/>
		<circle class="st0" cx="981.7" cy="453.1" r="4.1"/>
		<path class="st11" d="M677.4,825c0,0,32.1,12.7,19,47.1"/>
		<path class="st11" d="M653.5,825c0,0,5.8-3.2,13-2"/>
		<path class="st11" d="M349.7,822.7c0,0,34.5-0.7,34.8,36.2"/>
		<path class="st11" d="M329,830.5c0,0,4.2-5.1,11.4-6.6"/>
		<line class="st11" x1="448.4" y1="751.1" x2="574.1" y2="751.1"/>
		<path class="st11" d="M587.2,751.1c0,0,9.7-1.1,8.1,9.7"/>
		<path class="st11" d="M653,720.8c0,0,18.5,1.2,20.1,20.6"/>
		<path class="st11" d="M349.3,724.2c0,0,5.8-6.6,17.3-5.4"/>
		<path class="st11" d="M345.9,292.1c0,0,16.6,2.9,11.1,24.2"/>
		<circle class="st0" cx="336.8" cy="293.3" r="3.4"/>
		<line class="st11" x1="2389" y1="1319" x2="2389" y2="1360"/>
		<path class="st11" d="M2372.4,1300.2c0,0,11.9,1.6,13.5,10.5"/>
		<path class="st11" d="M1933.3,1307.7c0,0,3.6-5.6,12-6.4"/>
	</g>
</g>
</svg>
