<?xml version="1.0" encoding="utf-8"?>
<!-- Generator: Adobe Illustrator 18.0.0, SVG Export Plug-In . SVG Version: 6.00 Build 0)  -->
<!DOCTYPE svg PUBLIC "-//W3C//DTD SVG 1.1//EN" "http://www.w3.org/Graphics/SVG/1.1/DTD/svg11.dtd">
<svg version="1.1" id="Layer_1" xmlns="http://www.w3.org/2000/svg" xmlns:xlink="http://www.w3.org/1999/xlink" x="0px" y="0px"
	 viewBox="0 0 1400 980" enable-background="new 0 0 1400 980" xml:space="preserve">
<g>
	<rect fill="#37474F" width="1400" height="980"/>
	<g>
		<g>
			<g>
				<path fill="#785CA7" d="M405.1,199L405.1,199c0-2.1-0.9-4.3-2.7-5.8l-118-104.1c-11.8-10.4-29.6-10.4-41.4,0l-118,104.1
					c-1.8,1.6-2.6,3.7-2.6,5.9l0,0v68.3l4.5-43.2c0.7-7.1,9-10.6,14.6-6.1l111.1,88.3c6.6,5.2,15.8,5.2,22.4,0l111.1-88.3
					c5.6-4.4,13.8-1,14.6,6.1l4.5,43.2V199z"/>
				<path fill="#654B9E" d="M352.9,193.2L277,89.1c-7.6-10.4-19-10.4-26.6,0l-75.8,104.1c-2.4,3.3-2.3,9,0.2,12.1l81.7,101.1
					c4.2,5.2,10.2,5.2,14.4,0l81.7-101.1C355.1,202.3,355.2,196.5,352.9,193.2z"/>
				<g>
					<path fill="#FDD836" d="M169.5,325.6c-7.9,0-14.4-2-14.4-4.4v14.6c0,0,0,0,0,0c0,2.4,6.4,4.4,14.4,4.4s14.4-2,14.4-4.4
						c0,0,0,0,0,0v-14.6C183.9,323.6,177.4,325.6,169.5,325.6z"/>
					<path fill="#D3437B" d="M261.8,254.7l-56.1,7.6c-28.9,3.9-50.6,28.8-50.6,58v0.9c0,2.4,6.4,4.4,14.4,4.4s14.4-2,14.4-4.4v-0.9
						c0-14.8,11.1-27.5,25.7-29.5l56.1-7.6L261.8,254.7z"/>
				</g>
				<g>
					<path fill="#FDD836" d="M358,325.6c7.9,0,14.4-2,14.4-4.4v14.6c0,0,0,0,0,0c0,2.4-6.4,4.4-14.4,4.4s-14.4-2-14.4-4.4
						c0,0,0,0,0,0v-14.6C343.6,323.6,350.1,325.6,358,325.6z"/>
					<path fill="#D3437B" d="M265.7,254.7l56.1,7.6c28.9,3.9,50.6,28.8,50.6,58v0.9c0,2.4-6.4,4.4-14.4,4.4s-14.4-2-14.4-4.4v-0.9
						c0-14.8-11.1-27.5-25.7-29.5l-56.1-7.6L265.7,254.7z"/>
				</g>
				<g>
					<path fill="#D0C3E0" d="M263.7,124.9c13,0,24,8.2,28.4,19.6v-7.7c0-15.7-12.7-28.4-28.4-28.4s-28.4,12.7-28.4,28.4v7.7
						C239.7,133,250.8,124.9,263.7,124.9z"/>
					<path fill="#EA3F7A" d="M292.1,144.5c-4.3-11.4-15.4-19.6-28.4-19.6c-13,0-24,8.2-28.4,19.6c-1.3,3.3-2,7-2,10.8v150.2
						c0,16.8,13.6,30.4,30.4,30.4s30.4-13.6,30.4-30.4V155.2C294.1,151.4,293.4,147.8,292.1,144.5z"/>
				</g>
				<circle fill="#FDD836" cx="263.7" cy="160.9" r="10.8"/>
				<circle fill="#FDD836" cx="263.7" cy="204.6" r="7.4"/>
				<circle fill="#FDD836" cx="263.7" cy="243.6" r="4.7"/>
			</g>
			<g>
				<path fill="#F9C12E" d="M187.6,347.6c-10-10-26.2-10-36.2,0c-7.7,7.7-9.7,19.3-5,29.1l23.1,48.3l23.1-48.3
					C197.2,367,195.2,355.3,187.6,347.6z"/>
				<path fill="#F8A725" d="M153.3,365.8c-3.3-6.8-1.9-15.1,3.5-20.4c3.4-3.4,7.9-5.3,12.7-5.3s9.3,1.9,12.7,5.3
					c5.4,5.4,6.8,13.6,3.5,20.4l-16.2,33.9L153.3,365.8z"/>
				<path fill="#F27E21" d="M160.9,354.1c-1.7-3.6-1-7.9,1.8-10.8c1.8-1.8,4.2-2.8,6.7-2.8s4.9,1,6.7,2.8c2.8,2.8,3.6,7.2,1.8,10.8
					l-8.5,17.9L160.9,354.1z"/>
			</g>
			<g>
				<path fill="#F9C12E" d="M376.1,347.6c-10-10-26.2-10-36.2,0c-7.7,7.7-9.7,19.3-5,29.1l23.1,48.3l23.1-48.3
					C385.8,367,383.8,355.3,376.1,347.6z"/>
				<path fill="#F8A725" d="M341.8,365.8c-3.3-6.8-1.9-15.1,3.5-20.4c3.4-3.4,7.9-5.3,12.7-5.3c4.8,0,9.3,1.9,12.7,5.3
					c5.4,5.4,6.8,13.6,3.5,20.4L358,399.7L341.8,365.8z"/>
				<path fill="#F27E21" d="M349.5,354.1c-1.7-3.6-1-7.9,1.8-10.8c1.8-1.8,4.2-2.8,6.7-2.8s4.9,1,6.7,2.8c2.8,2.8,3.6,7.2,1.8,10.8
					L358,372L349.5,354.1z"/>
			</g>
		</g>
		<g>
			<g>
				<path fill="#F9C12E" d="M682.6,410.5c-6.2-6.2-16.4-6.2-22.6,0c-4.8,4.8-6,12.1-3.1,18.2l14.4,30.2l14.4-30.2
					C688.6,422.6,687.4,415.3,682.6,410.5z"/>
				<path fill="#F8A725" d="M661.1,421.9c-2-4.3-1.2-9.4,2.2-12.8c2.1-2.1,4.9-3.3,7.9-3.3c3,0,5.8,1.2,7.9,3.3
					c3.4,3.4,4.2,8.5,2.2,12.8l-10.1,21.2L661.1,421.9z"/>
				<path fill="#F27E21" d="M665.9,414.6c-1.1-2.3-0.6-5,1.2-6.7c1.1-1.1,2.6-1.7,4.2-1.7s3.1,0.6,4.2,1.7c1.8,1.8,2.2,4.5,1.2,6.7
					l-5.3,11.2L665.9,414.6z"/>
			</g>
			<g>
				<path fill="#F9C12E" d="M771,410.5c-6.2-6.2-16.4-6.2-22.6,0c-4.8,4.8-6,12.1-3.1,18.2l14.4,30.2l14.4-30.2
					C777.1,422.6,775.8,415.3,771,410.5z"/>
				<path fill="#F8A725" d="M749.6,421.9c-2-4.3-1.2-9.4,2.2-12.8c2.1-2.1,4.9-3.3,7.9-3.3c3,0,5.8,1.2,7.9,3.3
					c3.4,3.4,4.2,8.5,2.2,12.8l-10.1,21.2L749.6,421.9z"/>
				<path fill="#F27E21" d="M754.4,414.6c-1.1-2.3-0.6-5,1.2-6.7c1.1-1.1,2.6-1.7,4.2-1.7s3.1,0.6,4.2,1.7c1.8,1.8,2.2,4.5,1.2,6.7
					l-5.3,11.2L754.4,414.6z"/>
			</g>
			<g>
				<path fill="#019A8A" d="M664.5,407.4H678c2.5,0,4.6-1.9,4.8-4.3l1.3-11.2h-25.7l1.3,11.2C659.9,405.5,662,407.4,664.5,407.4z"/>
				<polygon fill="#22A59A" points="652.2,336.7 658.4,391.9 684.1,391.9 690.3,336.7 				"/>
			</g>
			<g>
				<path fill="#019A8A" d="M766.5,407.4H753c-2.5,0-4.6-1.9-4.8-4.3l-1.3-11.2h25.7l-1.3,11.2C771.1,405.5,769,407.4,766.5,407.4z"
					/>
				<polygon fill="#22A59A" points="778.8,336.7 772.6,391.9 746.9,391.9 740.7,336.7 				"/>
			</g>
			<path fill="#22A59A" d="M635.5,241.4l-18.4,19.1c-23.2,24-36.1,56.1-36.1,89.5v66.2l6.3-14.1c13.5-30.3,38.1-54.3,68.8-67v0
				L635.5,241.4z"/>
			<path fill="#019A8A" d="M592.7,349.9c0-30.5,11.7-59.5,32.9-81.5l3.4-3.5l13.9,63.3c-19.9,9.9-37,24.1-50.1,41.7V349.9z"/>
			<path fill="#22A59A" d="M795.5,241.4l18.4,19.1c23.2,24,36.1,56.1,36.1,89.5v66.2l-6.3-14.1c-13.5-30.3-38.1-54.3-68.8-67l0,0
				L795.5,241.4z"/>
			<path fill="#019A8A" d="M838.3,349.9c0-30.5-11.7-59.5-32.9-81.5l-3.4-3.5l-13.9,63.3c19.9,9.9,37,24.1,50.1,41.7V349.9z"/>
			<path fill="#20B99E" d="M802.2,242.6c0,116.1-38.8,128.5-86.7,128.5s-86.7-12.3-86.7-128.5s38.8-210.3,86.7-210.3
				S802.2,126.4,802.2,242.6z"/>
			<path fill="#22A59A" d="M774.9,242.6c0,116.1-26.6,128.5-59.4,128.5s-59.4-12.3-59.4-128.5s26.6-210.3,59.4-210.3
				S774.9,126.4,774.9,242.6z"/>
			<path fill="#019A8A" d="M765.6,293.8c0,69.8-22.4,77.2-50.1,77.2s-50.1-7.4-50.1-77.2s22.4-126.4,50.1-126.4
				S765.6,223.9,765.6,293.8z"/>
			<g>
				<polygon fill="#FFEEB3" points="674.4,238.1 674.4,250.4 683.8,247.2 683.8,233.4 				"/>
				<polygon fill="#FFEEB3" points="756.6,238.1 747.2,233.4 747.2,247.2 756.6,250.4 				"/>
				<path fill="#FFEEB3" d="M701.5,225.9v15.5c4-1.1,8.2-1.6,12.3-1.8v-15.5C709.7,224.2,705.6,224.8,701.5,225.9z"/>
				<path fill="#FFEEB3" d="M717.1,224.1v15.5c4.1,0.1,8.3,0.7,12.3,1.8v-15.5C725.4,224.8,721.3,224.2,717.1,224.1z"/>
				<path fill="#FFEEB3" d="M740.4,230c-2.5-1.2-5-2.3-7.7-3.1v15.5c0.2,0.1,0.4,0.1,0.6,0.2l10.5,3.6v-14.4L740.4,230z"/>
				<path fill="#FFEEB3" d="M690.6,230l-3.4,1.7v14.4l10.5-3.6c0.2-0.1,0.4-0.1,0.6-0.2v-15.5C695.6,227.7,693.1,228.7,690.6,230z"
					/>
			</g>
			<polygon fill="#89CFC2" points="715.5,273.2 715.5,474.1 695.8,300.2 			"/>
			<polygon fill="#64C3A6" points="715.5,273.2 715.5,474.1 735.2,300.2 			"/>
			<path fill="#007A6A" d="M707.7,59.8v92.1c-9,1.2-17.6,8.9-20.6,15.5L707.7,59.8z"/>
			<path fill="#007A6A" d="M723.3,59.8v92.1c9,1.2,17.6,8.9,20.6,15.5L723.3,59.8z"/>
		</g>
		<g>
			<circle fill="#C52128" cx="1167.1" cy="61.9" r="15.2"/>
			<g>
				<path fill="#E84D40" d="M1167.1,68.6c-13.4,0-17.5-11.9-18.7-17.9c-0.2-1-1.6-1.2-2.1-0.3L1056,211.7c-4,7.2-1.8,16.3,5,20.8
					l1.7,1.1c35.7,23.8,65,55.8,85.5,93.5l0,0h18.8V68.6z"/>
			</g>
			<path fill="#FDD836" d="M1167.1,106.2c-28.2,14.5-45,61.5-45,61.5c16.8-23.8,34.1-39.2,45-43.8V106.2z"/>
			<path fill="#C52128" d="M1137.7,229.1c0,43.5,13.2,78.7,29.4,78.7v-21.4C1150.8,286.5,1137.7,260.8,1137.7,229.1z"/>
			<path fill="#C52128" d="M1137.7,229.1c0-31.7,13.2-57.3,29.4-57.3v-21.4C1150.8,150.4,1137.7,185.7,1137.7,229.1z"/>
			<path fill="#C52128" d="M1105.2,155.8c-6.5,26.3,12.6,43.5,19.5,47.3C1096.5,205.7,1094.6,171.2,1105.2,155.8z"/>
			<path fill="#C52128" d="M1095.1,174.5c-6.5,26.3,12.6,43.5,19.5,47.3C1086.3,224.5,1084.4,189.9,1095.1,174.5z"/>
			<path fill="#C52128" d="M1084.9,193.3c-6.5,26.3,12.6,43.5,19.5,47.3C1076.2,243.2,1074.3,208.6,1084.9,193.3z"/>
			<path fill="#D33F37" d="M1167.1,346.2h-33v-9.1c3.9-3.9,6.1-6.1,10-10h23V346.2z"/>
			<rect x="1134" y="346.2" fill="#F9C12E" width="33" height="7"/>
			<polygon fill="#E84D40" points="1167.1,368.1 1116.6,368.1 1134,353.3 1167.1,353.3 			"/>
			<rect x="1116.6" y="368.1" fill="#D33F37" width="50.5" height="15.5"/>
			<g>
				<path fill="#E84D40" d="M1167.1,68.6c13.4,0,17.5-11.9,18.7-17.9c0.2-1,1.6-1.2,2.1-0.3l90.3,161.3c4,7.2,1.8,16.3-5,20.8
					l-1.7,1.1c-35.7,23.8-65,55.8-85.5,93.5l0,0h-18.8V68.6z"/>
			</g>
			<path fill="#FDD836" d="M1167.1,106.2c28.2,14.5,45,61.5,45,61.5c-16.8-23.8-34.1-39.2-45-43.8V106.2z"/>
			<path fill="#C52128" d="M1196.5,229.1c0,43.5-13.2,78.7-29.4,78.7v-21.4C1183.3,286.5,1196.5,260.8,1196.5,229.1z"/>
			<path fill="#C52128" d="M1196.5,229.1c0-31.7-13.2-57.3-29.4-57.3v-21.4C1183.3,150.4,1196.5,185.7,1196.5,229.1z"/>
			<ellipse fill="#D33F37" cx="1167.1" cy="229.1" rx="29.4" ry="57.3"/>
			<path fill="#E84D40" d="M1167.1,273.7c-5.7,0-16.7-17.4-16.7-44.6s10.9-44.6,16.7-44.6c5.7,0,16.7,17.4,16.7,44.6
				S1172.8,273.7,1167.1,273.7z"/>
			<path fill="#C52128" d="M1228.9,155.8c6.5,26.3-12.6,43.5-19.5,47.3C1237.6,205.7,1239.5,171.2,1228.9,155.8z"/>
			<path fill="#C52128" d="M1239.1,174.5c6.5,26.3-12.6,43.5-19.5,47.3C1247.8,224.5,1249.7,189.9,1239.1,174.5z"/>
			<path fill="#C52128" d="M1249.2,193.3c6.5,26.3-12.6,43.5-19.5,47.3C1258,243.2,1259.9,208.6,1249.2,193.3z"/>
			<path fill="#D33F37" d="M1167.1,346.2h33v-9.1c-3.9-3.9-6.1-6.1-10-10h-23V346.2z"/>
			<rect x="1167.1" y="346.2" fill="#F9C12E" width="33" height="7"/>
			<polygon fill="#E84D40" points="1167.1,368.1 1217.5,368.1 1200.1,353.3 1167.1,353.3 			"/>
			<rect x="1167.1" y="368.1" fill="#D33F37" width="50.5" height="15.5"/>
			<polygon fill="#87D2F3" points="1116.6,383.5 1167.1,483.2 1217.5,383.5 			"/>
			<polygon fill="#5AC2EF" points="1133.3,383.5 1167.1,450.2 1200.8,383.5 			"/>
			<polygon fill="#30A6DE" points="1148.7,383.5 1167.1,419.9 1185.5,383.5 			"/>
		</g>
		<g>
			<g>
				<polygon fill="#F68C20" points="77.9,820.2 61.3,871.2 61.3,899.9 77.9,871.2 				"/>
				<polygon fill="#F68C20" points="449.6,820.2 466.2,871.2 466.2,899.9 449.6,871.2 				"/>
				<g>
					<g>
						<path fill="#F68C20" d="M249.4,536l-29.9,59.2l-11.2,126l45.6,113h9.9V550.6l-12.9-16.8C250.3,534.5,249.8,535.3,249.4,536z"
							/>
						<path fill="#D24F27" d="M250.8,533.8l12.9,16.8v-23.3C258.6,527.2,253.8,529.7,250.8,533.8z"/>
					</g>
					<polygon fill="#FDD836" points="263.7,570.9 242.9,586.9 255.3,620.6 263.7,620.6 					"/>
					<polygon fill="#FDD836" points="238.9,591.2 250.4,621.5 238.9,632.5 					"/>
					<polygon fill="#FBB217" points="263.7,632.5 254.9,632.5 229.4,659.2 216.2,740.5 253.9,834.2 263.7,834.2 					"/>
					<g>
						<path fill="#90A4AE" d="M119,736.3c-3.7,0-6.8,2.4-8,5.7h16C125.8,738.6,122.7,736.3,119,736.3z"/>
						<path fill="#CFDAE0" d="M111,741.9c-0.3,0.9-0.5,1.8-0.5,2.8v10.7h16.9v-10.7c0-1-0.2-1.9-0.5-2.8H111z"/>
						<rect x="110.6" y="817.9" fill="#90A4AE" width="16.9" height="28"/>
						<rect x="110.6" y="755.4" fill="#AFBEC4" width="16.9" height="19"/>
						<rect x="110.6" y="774.4" fill="#CFDAE0" width="16.9" height="43.5"/>
					</g>
					<g>
						<path fill="#90A4AE" d="M157.3,700.6c-3.7,0-6.8,2.4-8,5.7h16C164.1,703,160.9,700.6,157.3,700.6z"/>
						<path fill="#CFDAE0" d="M149.3,706.3c-0.3,0.9-0.5,1.8-0.5,2.8v10.7h16.9v-10.7c0-1-0.2-1.9-0.5-2.8H149.3z"/>
						<rect x="148.8" y="782.3" fill="#90A4AE" width="16.9" height="28"/>
						<rect x="148.8" y="719.8" fill="#AFBEC4" width="16.9" height="19"/>
						<rect x="148.8" y="738.8" fill="#CFDAE0" width="16.9" height="43.5"/>
					</g>
					<polygon fill="#FDD836" points="208.3,721.2 77.9,820.2 77.9,871.2 253.9,834.2 					"/>
					<g>
						<polygon fill="#FFCB2B" points="85.9,824.2 85.9,861.4 112.4,855.8 135.2,786.8 						"/>
						<polygon fill="#FBB217" points="135.2,786.8 112.4,855.8 148.3,848.3 202.1,736 						"/>
						<polygon fill="#F99F1E" points="204.8,733.9 202.1,736 148.3,848.3 242.9,828.4 						"/>
					</g>
					<polygon fill="#F68C20" points="236,791.1 219.4,842.1 219.4,870.8 236,842.1 					"/>
					<polygon fill="#D24F27" points="263.7,861.4 247.4,861.4 241.2,845.9 263.7,845.9 					"/>
					<g>
						<path fill="#F68C20" d="M278,536l29.9,59.2l11.2,126l-45.6,113h-9.9V550.6l12.9-16.8C277.2,534.5,277.6,535.3,278,536z"/>
						<path fill="#D24F27" d="M276.7,533.8l-12.9,16.8v-23.3C268.9,527.2,273.7,529.7,276.7,533.8z"/>
					</g>
					<polygon fill="#FDD836" points="263.7,570.9 284.6,586.9 272.2,620.6 263.7,620.6 					"/>
					<polygon fill="#FDD836" points="288.6,591.2 277.1,621.5 288.6,632.5 					"/>
					<polygon fill="#FBB217" points="263.7,632.5 272.6,632.5 298.1,659.2 311.3,740.5 273.6,834.2 263.7,834.2 					"/>
					<g>
						<path fill="#90A4AE" d="M408.5,736.3c3.7,0,6.8,2.4,8,5.7h-16C401.7,738.6,404.8,736.3,408.5,736.3z"/>
						<path fill="#CFDAE0" d="M416.5,741.9c0.3,0.9,0.5,1.8,0.5,2.8v10.7H400v-10.7c0-1,0.2-1.9,0.5-2.8H416.5z"/>
						<rect x="400" y="817.9" fill="#90A4AE" width="16.9" height="28"/>
						<rect x="400" y="755.4" fill="#AFBEC4" width="16.9" height="19"/>
						<rect x="400" y="774.4" fill="#CFDAE0" width="16.9" height="43.5"/>
					</g>
					<g>
						<path fill="#90A4AE" d="M370.2,700.6c3.7,0,6.8,2.4,8,5.7h-16C363.4,703,366.5,700.6,370.2,700.6z"/>
						<path fill="#CFDAE0" d="M378.2,706.3c0.3,0.9,0.5,1.8,0.5,2.8v10.7h-16.9v-10.7c0-1,0.2-1.9,0.5-2.8H378.2z"/>
						<rect x="361.8" y="782.3" fill="#90A4AE" width="16.9" height="28"/>
						<rect x="361.8" y="719.8" fill="#AFBEC4" width="16.9" height="19"/>
						<rect x="361.8" y="738.8" fill="#CFDAE0" width="16.9" height="43.5"/>
					</g>
					<polygon fill="#FDD836" points="319.2,721.2 449.6,820.2 449.6,871.2 273.6,834.2 					"/>
					<g>
						<polygon fill="#FFCB2B" points="441.6,824.2 441.6,861.4 415,855.8 392.3,786.8 						"/>
						<polygon fill="#FBB217" points="392.3,786.8 415,855.8 379.2,848.3 325.4,736 						"/>
						<polygon fill="#F99F1E" points="322.7,733.9 325.4,736 379.2,848.3 284.6,828.4 						"/>
					</g>
					<path fill="#F26F23" d="M263.7,668.2c-15.3,0-27.7,12.4-27.7,27.7v149.9h27.7h27.7V696C291.5,680.7,279.1,668.2,263.7,668.2z"
						/>
					<path fill="#F68C20" d="M263.7,726.8c-8.2,0-14.9,6.7-14.9,14.9v80.5h14.9h14.9v-80.5C278.6,733.4,272,726.8,263.7,726.8z"/>
					<polygon fill="#F68C20" points="291.5,791.1 308.1,842.1 308.1,870.8 291.5,842.1 					"/>
					<polygon fill="#D24F27" points="263.7,861.4 280.1,861.4 286.3,845.9 263.7,845.9 					"/>
				</g>
			</g>
			<g>
				<polygon fill="#87D2F3" points="248.9,861.4 263.7,923.2 278.6,861.4 				"/>
				<polygon fill="#5AC2EF" points="253.8,861.4 263.7,902.7 273.7,861.4 				"/>
				<polygon fill="#30A6DE" points="258.3,861.4 263.7,883.9 269.2,861.4 				"/>
			</g>
		</g>
		<g>
			<path fill="#1B87C8" d="M886.2,847.7h-11.8v-65.4h0c6.5,0,11.8,5.3,11.8,11.8V847.7z"/>
			<path fill="#30A6DE" d="M880.3,903.3L880.3,903.3c1.8,0,3.3-1.5,3.3-3.3v-52.3h-6.7V900C876.9,901.8,878.4,903.3,880.3,903.3z"/>
			<path fill="#1B87C8" d="M856.2,633.4h-11.8v-59.5c0-3.3,2.6-5.9,5.9-5.9h0c3.3,0,5.9,2.6,5.9,5.9V633.4z"/>
			<path fill="#30A6DE" d="M850.3,689.1L850.3,689.1c1.8,0,3.3-1.5,3.3-3.3v-52.3h-6.7v52.3C846.9,687.6,848.4,689.1,850.3,689.1z"
				/>
			<g>
				<polygon fill="#30A6DE" points="771.9,687.3 811.7,717.6 771.9,782.3 				"/>
				<g>
					<g>
						<polygon fill="#5AC2EF" points="715.5,590.3 698.7,590.3 659.1,687.3 659.1,782.3 689.6,810.2 700.7,851.1 715.5,851.1 						
							"/>
						<polygon fill="#30A6DE" points="700.7,851.1 703.1,859.9 715.5,859.9 715.5,851.1 						"/>
					</g>
					<polygon fill="#30A6DE" points="659.1,687.3 619.3,717.6 659.1,782.3 					"/>
					<g>
						<polygon fill="#5DC2EE" points="619.3,717.6 556.7,782.3 556.7,826 659.1,782.3 						"/>
						<polygon fill="#FDD836" points="689.6,810.2 659.1,782.3 556.7,826 556.7,834.3 						"/>
					</g>
					<path fill="#1B87C8" d="M544.8,847.7h11.8v-65.4l0,0c-6.5,0-11.8,5.3-11.8,11.8V847.7z"/>
					<path fill="#30A6DE" d="M550.7,903.4L550.7,903.4c-1.8,0-3.3-1.5-3.3-3.3v-52.3h6.7v52.3C554.1,901.9,552.6,903.4,550.7,903.4z
						"/>
					<path fill="#1B87C8" d="M574.8,634.8h11.8v-59.5c0-3.3-2.6-5.9-5.9-5.9l0,0c-3.3,0-5.9,2.6-5.9,5.9V634.8z"/>
					<path fill="#30A6DE" d="M580.7,690.5L580.7,690.5c-1.8,0-3.3-1.5-3.3-3.3v-52.3h6.7v52.3C584.1,689,582.6,690.5,580.7,690.5z"
						/>
					<g>
						<polygon fill="#FDD836" points="586.7,626.4 659.1,687.3 670,660.6 586.7,619.2 						"/>
						<polygon fill="#30A6DE" points="586.7,577.1 586.7,619.2 670,660.6 689.6,612.7 						"/>
					</g>
					<polygon fill="#FDD836" points="715.5,617.1 701.6,631 709.7,679.1 715.5,679.1 					"/>
					<polygon fill="#FDD836" points="696.7,634.8 706.5,679.9 698.7,687.3 687.3,658.4 					"/>
					<polygon fill="#FDD836" points="684,664.1 696.3,690.5 684,706.1 					"/>
					<polygon fill="#84D3F5" points="715.5,593.6 701,593.6 689.6,621.1 700.3,628.6 715.5,613.7 					"/>
					<polygon fill="#30A6DE" points="715.5,700.7 690.1,725.1 690.1,788.2 704.5,802.6 715.5,802.6 					"/>
					<polygon fill="#2898D4" points="715.5,724.9 700.4,739.4 700.4,777 708.9,785.6 715.5,785.6 					"/>
					<rect x="704.5" y="802.6" fill="#84D3F5" width="11" height="31.7"/>
					<polygon fill="#30A6DE" points="704.5,802.6 657.6,837.7 657.6,848.5 704.5,834.3 					"/>
					<g>
						<path fill="#1B87C8" d="M715.5,507.7L715.5,507.7c-3.3,0-6.1,2.4-6.6,5.7v0c-1,6.7-1.9,13.4-2.6,20.1h9.2V507.7z"/>
						<path fill="#1B87C8" d="M704,577.9v12.4h11.5V552h-10.7C704.3,560.6,704,569.3,704,577.9z"/>
						<path fill="#30A6DE" d="M706.3,533.5c-0.6,6.2-1.2,12.3-1.5,18.5h10.7v-18.5H706.3z"/>
					</g>
					<g>
						<polygon fill="#5AC2EF" points="715.5,590.3 732.3,590.3 771.9,687.3 771.9,782.3 741.4,810.2 730.3,851.1 715.5,851.1 						
							"/>
						<polygon fill="#30A6DE" points="730.3,851.1 727.9,859.9 715.5,859.9 715.5,851.1 						"/>
					</g>
					<g>
						<polygon fill="#5DC2EE" points="811.7,717.6 874.3,782.3 874.3,826 771.9,782.3 						"/>
						<polygon fill="#FDD836" points="741.4,810.2 771.9,782.3 874.3,826 874.3,834.3 						"/>
					</g>
					<g>
						<polygon fill="#FDD836" points="844.3,626.4 771.9,687.3 761,660.6 844.3,619.2 						"/>
						<polygon fill="#30A6DE" points="844.3,577.1 844.3,619.2 761,660.6 741.4,612.7 						"/>
					</g>
					<polygon fill="#FDD836" points="715.5,617.1 729.4,631 721.2,679.1 715.5,679.1 					"/>
					<polygon fill="#FDD836" points="734.3,634.8 724.5,679.9 732.3,687.3 743.7,658.4 					"/>
					<polygon fill="#FDD836" points="747,664.1 734.7,690.5 747,706.1 					"/>
					<polygon fill="#84D3F5" points="715.5,593.6 730,593.6 741.4,621.1 730.7,628.6 715.5,613.7 					"/>
					<polygon fill="#30A6DE" points="715.5,700.7 740.9,725.1 740.9,788.2 726.5,802.6 715.5,802.6 					"/>
					<polygon fill="#2898D4" points="715.5,724.9 730.6,739.4 730.6,777 722.1,785.6 715.5,785.6 					"/>
					<rect x="715.5" y="802.6" fill="#84D3F5" width="11" height="31.7"/>
					<polygon fill="#30A6DE" points="726.5,802.6 773.4,837.7 773.4,848.5 726.5,834.3 					"/>
					<g>
						<path fill="#1B87C8" d="M715.5,507.7L715.5,507.7c3.3,0,6.1,2.4,6.6,5.7v0c1,6.7,1.9,13.4,2.6,20.1h-9.2V507.7z"/>
						<path fill="#1B87C8" d="M727,577.9v12.4h-11.5V552h10.7C726.7,560.6,727,569.3,727,577.9z"/>
						<path fill="#30A6DE" d="M724.7,533.5c0.6,6.2,1.2,12.3,1.5,18.5h-10.7v-18.5H724.7z"/>
					</g>
				</g>
				<g>
					<path fill="#F9C12E" d="M732.4,868.4c-10-10-26.2-10-36.2,0c-7.7,7.7-9.7,19.3-5,29.1l23.1,48.3l23.1-48.3
						C742.1,887.8,740.1,876.1,732.4,868.4z"/>
					<path fill="#F8A725" d="M698.1,886.6c-3.3-6.8-1.9-15.1,3.5-20.4c3.4-3.4,7.9-5.3,12.7-5.3c4.8,0,9.3,1.9,12.7,5.3
						c5.4,5.4,6.8,13.6,3.5,20.4l-16.2,33.9L698.1,886.6z"/>
					<path fill="#F27E21" d="M705.8,874.9c-1.7-3.6-1-7.9,1.8-10.8c1.8-1.8,4.2-2.8,6.7-2.8c2.5,0,4.9,1,6.7,2.8
						c2.8,2.8,3.6,7.2,1.8,10.8l-8.5,17.9L705.8,874.9z"/>
				</g>
			</g>
		</g>
		<g>
			<g>
				<path fill="#F9C12E" d="M1065.2,869.2c-8.4-8.4-21.9-8.4-30.3,0c-6.4,6.4-8.1,16.2-4.2,24.4l19.3,40.5l19.3-40.5
					C1073.3,885.4,1071.6,875.6,1065.2,869.2z"/>
				<path fill="#F8A725" d="M1036.5,884.4c-2.7-5.7-1.6-12.6,2.9-17.1c2.8-2.8,6.6-4.4,10.6-4.4s7.8,1.6,10.6,4.4
					c4.5,4.5,5.7,11.4,2.9,17.1l-13.6,28.4L1036.5,884.4z"/>
				<path fill="#F27E21" d="M1042.9,874.6c-1.4-3-0.8-6.7,1.5-9c1.5-1.5,3.5-2.3,5.6-2.3c2.1,0,4.1,0.8,5.6,2.3c2.4,2.4,3,6,1.5,9
					l-7.2,15L1042.9,874.6z"/>
			</g>
			<g>
				<path fill="#F9C12E" d="M1101.5,869c-6.2-6.2-16.4-6.2-22.6,0c-4.8,4.8-6,12.1-3.1,18.2l14.4,30.2l14.4-30.2
					C1107.5,881.1,1106.3,873.8,1101.5,869z"/>
				<path fill="#F8A725" d="M1080.1,880.4c-2-4.3-1.2-9.4,2.2-12.8c2.1-2.1,4.9-3.3,7.9-3.3c3,0,5.8,1.2,7.9,3.3
					c3.4,3.4,4.2,8.5,2.2,12.8l-10.1,21.2L1080.1,880.4z"/>
				<path fill="#F27E21" d="M1084.8,873c-1.1-2.3-0.6-5,1.2-6.7c1.1-1.1,2.6-1.7,4.2-1.7c1.6,0,3.1,0.6,4.2,1.7
					c1.8,1.8,2.2,4.5,1.2,6.7l-5.3,11.2L1084.8,873z"/>
			</g>
			<g>
				<path fill="#F9C12E" d="M1269,869.2c8.4-8.4,21.9-8.4,30.3,0c6.4,6.4,8.1,16.2,4.2,24.4l-19.3,40.5l-19.3-40.5
					C1260.9,885.4,1262.5,875.6,1269,869.2z"/>
				<path fill="#F8A725" d="M1297.7,884.4c2.7-5.7,1.6-12.6-2.9-17.1c-2.8-2.8-6.6-4.4-10.6-4.4s-7.8,1.6-10.6,4.4
					c-4.5,4.5-5.7,11.4-2.9,17.1l13.6,28.4L1297.7,884.4z"/>
				<path fill="#F27E21" d="M1291.3,874.6c1.4-3,0.8-6.7-1.5-9c-1.5-1.5-3.5-2.3-5.6-2.3c-2.1,0-4.1,0.8-5.6,2.3c-2.4,2.4-3,6-1.5,9
					l7.2,15L1291.3,874.6z"/>
			</g>
			<g>
				<path fill="#F9C12E" d="M1232.6,869c6.2-6.2,16.4-6.2,22.6,0c4.8,4.8,6,12.1,3.1,18.2l-14.4,30.2l-14.4-30.2
					C1226.6,881.1,1227.8,873.8,1232.6,869z"/>
				<path fill="#F8A725" d="M1254.1,880.4c2-4.3,1.2-9.4-2.2-12.8c-2.1-2.1-4.9-3.3-7.9-3.3c-3,0-5.8,1.2-7.9,3.3
					c-3.4,3.4-4.2,8.5-2.2,12.8l10.1,21.2L1254.1,880.4z"/>
				<path fill="#F27E21" d="M1249.3,873c1.1-2.3,0.6-5-1.2-6.7c-1.1-1.1-2.6-1.7-4.2-1.7c-1.6,0-3.1,0.6-4.2,1.7
					c-1.8,1.8-2.2,4.5-1.2,6.7l5.3,11.2L1249.3,873z"/>
			</g>
			<g>
				<g>
					<rect x="1040.5" y="828.5" fill="#BDBDBD" width="19" height="28.3"/>
					<rect x="1040.5" y="856.8" fill="#9F9E9E" width="19" height="8.1"/>
				</g>
				<g>
					<rect x="1085.7" y="806.9" fill="#BDBDBD" width="8.9" height="49.8"/>
					<rect x="1085.7" y="856.8" fill="#9F9E9E" width="8.9" height="8.1"/>
				</g>
				<g>
					<rect x="1239.5" y="806.9" fill="#BDBDBD" width="8.9" height="49.8"/>
					<rect x="1239.5" y="856.8" fill="#9F9E9E" width="8.9" height="8.1"/>
				</g>
				<g>
					<path fill="#CFDB39" d="M1167.1,569.2L1167.1,569.2L1167.1,569.2c-81.6,0-147.8,66.2-147.8,147.8v9.3l147.8-29.8V569.2z"/>
					<polygon fill="#B0B537" points="1019.3,726.3 1167.1,801.4 1167.1,696.5 					"/>
				</g>
				<polygon fill="#B0B537" points="1167.1,643 1132,654.1 1132,818.5 1167.1,818.5 				"/>
				<polygon fill="#9D9E37" points="1167.1,661.3 1151.2,666.3 1151.2,818.5 1167.1,818.5 				"/>
				<g>
					<path fill="#F79820" d="M1167.1,591.4c-22.5,0-55.6,3.3-82.7,31.9c-2.6,2.7-2.5,7.1,0.3,9.7c1.3,1.2,3,1.9,4.7,1.9
						c1.8,0,3.6-0.7,5-2.1c11.2-11.9,31-27.7,72.7-27.7h0L1167.1,591.4L1167.1,591.4z"/>
				</g>
				<g>
					<polygon fill="#BFCC34" points="1132,692.6 995.4,814.5 995.4,854.4 1132,772.9 					"/>
					<polygon fill="#F8EB38" points="995.4,854.4 995.4,868.8 1132,801.4 1132,772.9 					"/>
				</g>
				<rect x="1127.9" y="818.5" fill="#CFDB39" width="39.2" height="10"/>
				<rect x="1132" y="828.5" fill="#B0B537" width="35.1" height="13.2"/>
				<polygon fill="#CFDB39" points="1132,841.7 1120.6,854.4 1167.1,854.4 1167.1,841.7 				"/>
				<rect x="1120.6" y="854.4" fill="#B0B537" width="46.5" height="10.5"/>
				<g>
					<circle fill="#F8EB38" cx="1036.5" cy="710.1" r="6.5"/>
					<path fill="#F79820" d="M1036.5,713.7c-2,0-3.6-1.6-3.6-3.6c0-2,1.6-3.6,3.6-3.6c2,0,3.6,1.6,3.6,3.6
						C1040.1,712,1038.5,713.7,1036.5,713.7z"/>
				</g>
				<g>
					<circle fill="#F8EB38" cx="1075" cy="703" r="6.5"/>
					<path fill="#F79820" d="M1075,706.7c-2,0-3.6-1.6-3.6-3.6s1.6-3.6,3.6-3.6s3.6,1.6,3.6,3.6S1077,706.7,1075,706.7z"/>
				</g>
				<g>
					<circle fill="#F8EB38" cx="1113.5" cy="696" r="6.5"/>
					<path fill="#F79820" d="M1113.5,699.7c-2,0-3.6-1.6-3.6-3.6c0-2,1.6-3.6,3.6-3.6c2,0,3.6,1.6,3.6,3.6
						C1117.1,698,1115.5,699.7,1113.5,699.7z"/>
				</g>
				<g>
					<rect x="1274.6" y="828.5" fill="#BDBDBD" width="19" height="28.3"/>
					<rect x="1274.6" y="856.8" fill="#9F9E9E" width="19" height="8.1"/>
				</g>
				<g>
					<path fill="#CFDB39" d="M1167.1,569.2L1167.1,569.2L1167.1,569.2c81.6,0,147.8,66.2,147.8,147.8v9.3l-147.8-29.8V569.2z"/>
					<polygon fill="#B0B537" points="1314.9,726.3 1167.1,801.4 1167.1,696.5 					"/>
				</g>
				<polygon fill="#B0B537" points="1167.1,643 1202.1,654.1 1202.1,818.5 1167.1,818.5 				"/>
				<polygon fill="#9D9E37" points="1167.1,661.3 1182.9,666.3 1182.9,818.5 1167.1,818.5 				"/>
				<g>
					<path fill="#F79820" d="M1167.1,591.4c22.5,0,55.6,3.3,82.7,31.9c2.6,2.7,2.5,7.1-0.3,9.7c-1.3,1.2-3,1.9-4.7,1.9
						c-1.8,0-3.6-0.7-5-2.1c-11.2-11.9-31-27.7-72.7-27.7h0L1167.1,591.4L1167.1,591.4z"/>
				</g>
				<g>
					<polygon fill="#BFCC34" points="1202.1,692.6 1338.7,814.5 1338.7,854.4 1202.1,772.9 					"/>
					<polygon fill="#F8EB38" points="1338.7,854.4 1338.7,868.8 1202.1,801.4 1202.1,772.9 					"/>
				</g>
				<rect x="1167.1" y="818.5" fill="#CFDB39" width="39.2" height="10"/>
				<rect x="1167.1" y="828.5" fill="#B0B537" width="35.1" height="13.2"/>
				<polygon fill="#CFDB39" points="1202.1,841.7 1213.5,854.4 1167.1,854.4 1167.1,841.7 				"/>
				<rect x="1167.1" y="854.4" fill="#B0B537" width="46.5" height="10.5"/>
				<g>
					<circle fill="#F8EB38" cx="1297.7" cy="710.1" r="6.5"/>
					<path fill="#F79820" d="M1297.7,713.7c2,0,3.6-1.6,3.6-3.6c0-2-1.6-3.6-3.6-3.6c-2,0-3.6,1.6-3.6,3.6
						C1294,712,1295.7,713.7,1297.7,713.7z"/>
				</g>
				<g>
					<circle fill="#F8EB38" cx="1259.2" cy="703" r="6.5"/>
					<path fill="#F79820" d="M1259.2,706.7c2,0,3.6-1.6,3.6-3.6s-1.6-3.6-3.6-3.6s-3.6,1.6-3.6,3.6S1257.2,706.7,1259.2,706.7z"/>
				</g>
				<g>
					<circle fill="#F8EB38" cx="1220.7" cy="696" r="6.5"/>
					<path fill="#F79820" d="M1220.7,699.7c2,0,3.6-1.6,3.6-3.6c0-2-1.6-3.6-3.6-3.6c-2,0-3.6,1.6-3.6,3.6
						C1217,698,1218.7,699.7,1220.7,699.7z"/>
				</g>
			</g>
			<g>
				<polygon fill="#F9C12E" points="1125.1,864.9 1167.1,947.7 1209,864.9 				"/>
				<polygon fill="#F8A725" points="1139,864.9 1167.1,920.3 1195.1,864.9 				"/>
				<polygon fill="#F27E21" points="1151.8,864.9 1167.1,895.1 1182.4,864.9 				"/>
			</g>
		</g>
	</g>
</g>
</svg>
